<svg width="60" height="60" viewBox="0 0 60 60" fill="none" xmlns="http://www.w3.org/2000/svg">
<g clip-path="url(#clip0_1505_940)">
<path d="M48.5352 42.891C47.2056 42.891 46.0547 43.8369 45.7986 45.1402C45.7051 45.6164 46.0153 46.0784 46.4917 46.172C46.9682 46.265 47.43 45.9552 47.5235 45.4789C47.618 44.998 48.0435 44.6488 48.5352 44.6488C49.1038 44.6488 49.5662 45.1112 49.5662 45.6798C49.5662 46.2484 49.1037 46.7108 48.5352 46.7108C48.0498 46.7108 47.6563 47.1042 47.6563 47.5897C47.6563 48.0752 48.0498 48.4686 48.5352 48.4686C49.1038 48.4686 49.5662 48.9312 49.5662 49.4998C49.5662 50.0684 49.1037 50.5308 48.5352 50.5308C47.968 50.5308 47.5042 50.0633 47.5042 49.4998C47.5042 49.0143 47.1107 48.6209 46.6253 48.6209C46.1399 48.6209 45.7464 49.0143 45.7464 49.4998C45.7464 51.0137 47.0075 52.2886 48.5352 52.2886C50.073 52.2886 51.324 51.0375 51.324 49.4998C51.324 48.7611 51.0349 48.0892 50.5645 47.5897C51.0348 47.0903 51.324 46.4183 51.324 45.6798C51.324 44.1421 50.0729 42.891 48.5352 42.891ZM14.0776 43.0579C14.0776 41.5201 12.8265 40.269 11.2888 40.269C9.95906 40.269 8.80828 41.215 8.55223 42.5182C8.45871 42.9945 8.76902 43.4565 9.24527 43.55C9.72164 43.643 10.1835 43.3332 10.2771 42.857C10.3716 42.3761 10.7971 42.0268 11.2888 42.0268C11.8413 42.0268 12.2939 42.4638 12.3188 43.0104C12.3427 43.5366 12.049 43.8904 11.6482 44.463C10.4661 46.1521 9.7609 47.0755 9.38203 47.5716C8.90754 48.1929 8.69098 48.4765 8.84016 48.9616C8.92805 49.2473 9.14437 49.4666 9.43359 49.563C9.80309 49.6863 12.3074 49.635 13.5263 49.6198C14.0116 49.6137 14.4001 49.2154 14.394 48.73C14.3879 48.2483 13.9957 47.8621 13.5154 47.8621C13.5116 47.8621 13.5079 47.8621 13.5041 47.8622C12.7751 47.8712 12.0025 47.8774 11.3535 47.8789C11.7652 47.3275 12.3309 46.5532 13.0882 45.471C13.6501 44.6681 14.0776 43.8762 14.0776 43.0579ZM30.7977 33.3108H29.2023C28.7169 33.3108 28.3234 33.7042 28.3234 34.1897C28.3234 34.6752 28.7169 35.0686 29.2023 35.0686H29.9188V41.6538C29.9188 42.1393 30.3123 42.5327 30.7977 42.5327C31.2831 42.5327 31.6766 42.1393 31.6766 41.6538V34.1897C31.6766 33.7042 31.2831 33.3108 30.7977 33.3108ZM58.2422 53.6788V42.9724C58.2422 41.1955 56.7966 39.7498 55.0195 39.7498H51.9345C51.4491 39.7498 51.0555 40.1432 51.0555 40.6287C51.0555 41.1142 51.4491 41.5076 51.9345 41.5076H55.0195C55.8273 41.5076 56.4844 42.1646 56.4844 42.9724V53.6719H40.5859V42.9724C40.5859 42.1646 41.243 41.5076 42.0507 41.5076H48.4188C48.9042 41.5076 49.2977 41.1142 49.2977 40.6287C49.2977 40.1432 48.9042 39.7498 48.4188 39.7498H42.0507C41.5234 39.7498 41.0257 39.8779 40.5859 40.1034V23.6365C40.5859 21.8596 39.1403 20.4138 37.3632 20.4138H36.1201V18.3949C36.1201 17.1596 35.1151 16.1548 33.8798 16.1548H32.9209V12.9123C33.5339 12.2748 34.0849 11.5836 34.5707 10.8511C37.1723 10.7448 39.5613 9.1984 40.7126 6.84984L41.9899 4.24477C42.236 3.74285 42.2066 3.1602 41.9111 2.68617C41.6155 2.21203 41.105 1.92891 40.5457 1.92891H37.0557V1.33266C37.0557 0.597891 36.4579 0 35.723 0H24.2769C23.542 0 22.9441 0.597891 22.9441 1.33266V1.92891H19.4543C18.895 1.92891 18.3846 2.21203 18.0889 2.68617C17.7935 3.1602 17.764 3.74285 18.0101 4.24477L19.2873 6.84984C20.4387 9.1984 22.8277 10.7448 25.4292 10.8511C25.9151 11.5835 26.466 12.2748 27.079 12.9123V16.1548H26.12C24.8848 16.1548 23.8798 17.1596 23.8798 18.3949V20.4138H22.6366C20.8596 20.4138 19.414 21.8596 19.414 23.6365V34.83C18.9742 34.6045 18.4765 34.4763 17.9491 34.4763H4.98047C3.20344 34.4763 1.75781 35.9221 1.75781 37.699V51.0352C1.75781 51.5207 2.15133 51.9141 2.63672 51.9141C3.12211 51.9141 3.51562 51.5207 3.51562 51.0352V37.699C3.51562 36.8912 4.1727 36.2341 4.98047 36.2341H17.9493C18.757 36.2341 19.4141 36.8912 19.4141 37.699V53.6719H1.89434C0.849727 53.6719 0 54.5217 0 55.5662V58.1057C0 59.1502 0.849727 60 1.89434 60H58.1058C59.1503 60 60.0001 59.1502 60.0001 58.1057V55.5662C60 54.5678 59.223 53.7492 58.2422 53.6788ZM37.0186 3.68672H40.3058L39.1343 6.07605C38.4397 7.49297 37.1479 8.52246 35.6545 8.91937C36.4206 7.27969 36.8893 5.50266 37.0186 3.68672ZM20.8657 6.07605L19.6942 3.68672H22.9814C23.1108 5.50266 23.5794 7.27969 24.3455 8.91937C22.8521 8.52246 21.5603 7.49285 20.8657 6.07605ZM24.7021 1.75781H35.2979C35.3766 5.42074 34.2721 8.97598 31.674 11.6729H28.326C25.7162 8.95453 24.6326 5.47312 24.7021 1.75781ZM31.1631 13.4307V16.1548H28.8368V13.4307H31.1631ZM25.6377 18.395C25.6377 18.129 25.8541 17.9127 26.1202 17.9127H33.88C34.146 17.9127 34.3624 18.1291 34.3624 18.395V20.4139H25.6378V18.395H25.6377ZM21.1719 23.6365C21.1719 22.8287 21.829 22.1716 22.6368 22.1716H37.3634C38.1711 22.1716 38.8282 22.8287 38.8282 23.6365V53.6719H21.1719V23.6365ZM58.2422 58.1057C58.2422 58.181 58.181 58.2422 58.1057 58.2422H1.89434C1.8191 58.2422 1.75781 58.181 1.75781 58.1057V55.5662C1.75781 55.4909 1.81898 55.4297 1.89434 55.4297H58.1058C58.181 55.4297 58.2423 55.4909 58.2423 55.5662V58.1057H58.2422Z" fill="#AA8A4B"/>
</g>
<defs>
<clipPath id="clip0_1505_940">
<rect width="60" height="60" fill="white"/>
</clipPath>
</defs>
</svg>
