<svg width="60" height="60" viewBox="0 0 60 60" fill="none" xmlns="http://www.w3.org/2000/svg">
<g clip-path="url(#clip0_1505_924)">
<path d="M9.72965 13.9918H13.604C14.0895 13.9918 14.4829 13.5983 14.4829 13.1129C14.4829 12.6275 14.0895 12.234 13.604 12.234H9.72965C8.29387 12.234 7.08109 11.0972 7.02602 9.69995C7.02426 9.656 7.02344 9.61241 7.02344 9.56893C7.02344 7.84112 8.4291 6.43546 10.1569 6.43546C11.108 6.43546 11.9971 6.86096 12.5959 7.60288C12.8495 7.91706 13.2843 8.01796 13.6507 7.84757C13.9885 7.69042 14.3493 7.61073 14.7231 7.61073C15.6255 7.61073 16.469 8.09635 16.9243 8.87811C17.042 9.08038 17.2357 9.22733 17.4624 9.28628C17.689 9.34522 17.9297 9.31135 18.1312 9.19217C18.4205 9.02108 18.7517 8.93061 19.0891 8.93061C20.0032 8.93061 20.7835 9.58264 20.9445 10.4809C21.0197 10.8998 21.3841 11.2048 21.8097 11.2048H24.6538C24.9529 11.2048 25.2097 11.4358 25.2146 11.7094C25.2171 11.8489 25.1649 11.9805 25.0673 12.0799C24.9698 12.1793 24.8393 12.234 24.7 12.234H17.1194C16.6339 12.234 16.2405 12.6275 16.2405 13.1129C16.2405 13.5983 16.6339 13.9918 17.1194 13.9918H24.7C25.3149 13.9918 25.8907 13.7502 26.3215 13.3114C26.7523 12.8727 26.9833 12.2924 26.9722 11.6773C26.9498 10.4474 25.9098 9.44694 24.6538 9.44694H22.4664C21.9202 8.09424 20.5989 7.1728 19.0891 7.1728C18.7111 7.1728 18.337 7.23163 17.9802 7.34565C17.1704 6.41026 15.9807 5.85292 14.7231 5.85292C14.3131 5.85292 13.9121 5.90975 13.5249 6.02225C12.6207 5.16116 11.4242 4.67764 10.1569 4.67764C7.45984 4.67764 5.26562 6.87186 5.26562 9.56893C5.26562 9.63514 5.26703 9.70182 5.26961 9.76897C5.36277 12.137 7.32191 13.9918 9.72965 13.9918Z" fill="#AA8A4B"/>
<path d="M59.1211 53.5645H58.549C59.4579 52.4913 59.8871 50.8235 59.8871 48.412C59.8871 45.4008 59.2343 41.6214 58.1832 38.5488C57.2688 35.8755 55.6886 32.6889 53.3524 32.6889C52.1778 32.6889 51.0882 33.4873 50.1043 35.0643C49.2517 33.7017 48.175 32.6889 46.858 32.6889C45.4418 32.6889 44.1525 33.8443 43.0214 36.1248C42.7905 36.0422 42.5432 35.9948 42.2843 35.9948H33.5248C33.0393 35.9948 32.6459 36.3884 32.6459 36.8737C32.6459 37.3591 33.0393 37.7527 33.5248 37.7527H42.2843C42.5263 37.7527 42.7232 37.9495 42.7232 38.1915V39.1854C42.7232 39.4274 42.5263 39.6243 42.2843 39.6243H17.7157C17.4737 39.6243 17.2768 39.4274 17.2768 39.1854V38.1915C17.2768 37.9495 17.4737 37.7527 17.7157 37.7527H30.0091C30.4946 37.7527 30.888 37.3591 30.888 36.8737C30.888 36.3884 30.4946 35.9948 30.0091 35.9948H22.7211C23.3937 34.4933 23.7473 32.8506 23.7473 31.1945C23.7473 24.7267 18.4854 19.4647 12.0176 19.4647C5.54977 19.4647 0.287695 24.7267 0.287695 31.1945C0.287695 37.3253 5.01574 42.3717 11.0169 42.8812V47.8871C10.8318 47.8623 10.644 47.8492 10.4546 47.8492C10.121 47.8492 9.79301 47.8878 9.47367 47.9645C8.45051 46.5817 6.77801 45.7675 5.03297 45.8488C2.36309 45.9727 0.184805 48.1617 0.0742969 50.833C0.0343359 51.8005 0.269414 52.7495 0.728789 53.5784C0.315 53.6497 0 54.0094 0 54.4434C0 54.9288 0.393398 55.3223 0.878906 55.3223H2.58633H59.1211C59.6066 55.3223 60 54.9288 60 54.4434C60 53.958 59.6066 53.5645 59.1211 53.5645ZM17.757 52.2826C17.7394 52.0264 17.6927 51.7726 17.622 51.5255H20.4286V53.5645H17.6246C17.7411 53.1546 17.7872 52.7225 17.757 52.2826ZM36.8336 45.0117V46.3066H23.5533V45.0117H36.8336ZM40.5577 45.0117C40.5018 45.4507 40.4552 45.8835 40.4191 46.3066H38.5913V45.0117H40.5577ZM44.2365 48.0644C44.348 48.0644 44.4387 48.1552 44.4387 48.2666V49.5654C44.4387 49.677 44.348 49.7675 44.2365 49.7675H15.7635C15.652 49.7675 15.5612 49.6768 15.5612 49.5654V48.2666C15.5612 48.1552 15.6519 48.0644 15.7635 48.0644H44.2365ZM22.1864 51.5255H38.2003V53.5645H22.1864V51.5255ZM39.9582 51.5255H40.6617C40.8933 52.3997 41.2391 53.0636 41.6651 53.5645H39.9581L39.9582 51.5255ZM51.1008 36.8856C51.8621 35.3585 52.7039 34.4467 53.3525 34.4467C54.0768 34.4467 55.3409 35.67 56.5201 39.1178C57.4977 41.9757 58.1293 45.624 58.1293 48.412C58.1293 53.3672 56.3313 53.3672 53.3524 53.3672C52.9862 53.3672 52.6011 53.3666 52.2209 53.3517C53.0152 52.2753 53.3927 50.6705 53.3927 48.412C53.3927 45.4008 52.7399 41.6214 51.6888 38.5488C51.5088 38.0228 51.3027 37.4769 51.0705 36.9393C51.0809 36.9217 51.0914 36.9042 51.1008 36.8856ZM46.858 34.4468C47.5822 34.4468 48.8463 35.6701 50.0256 39.1179C51.0032 41.9759 51.6348 45.6241 51.6348 48.4121C51.6348 53.3673 49.8368 53.3673 46.8579 53.3673C44.4947 53.3673 43.1453 53.2778 42.5004 51.5256H44.2364C45.3172 51.5256 46.1964 50.6463 46.1964 49.5656V48.2668C46.1964 47.1861 45.3171 46.3069 44.2364 46.3069H42.1841C42.2225 45.8832 42.2714 45.45 42.3307 45.0096C43.5203 44.9845 44.4809 44.0108 44.4809 42.8153V41.8214C44.4809 41.3268 44.3145 40.8712 44.0375 40.5036C44.3146 40.136 44.4809 39.6805 44.4809 39.1859V38.192C44.4809 37.9221 44.4295 37.6644 44.3401 37.4253C44.3625 37.3905 44.3835 37.3545 44.4012 37.3158C45.223 35.5191 46.1414 34.4468 46.858 34.4468ZM42.2843 41.3822C42.5263 41.3822 42.7232 41.5791 42.7232 41.821V42.8149C42.7232 43.0569 42.5263 43.2538 42.2843 43.2538H17.7157C17.4737 43.2538 17.2768 43.0569 17.2768 42.8149V41.821C17.2768 41.5791 17.4737 41.3822 17.7157 41.3822H42.2843ZM2.04562 31.1945C2.04562 25.6959 6.51914 21.2225 12.0177 21.2225C17.5163 21.2225 21.9896 25.6959 21.9896 31.1945C21.9896 32.845 21.5783 34.4798 20.8002 35.9222C20.7873 35.9461 20.7761 35.9703 20.7656 35.9948H17.7158C16.5046 35.9948 15.5191 36.9803 15.5191 38.1915V39.1854C15.5191 39.6329 15.6544 40.0492 15.8851 40.3968C15.8522 40.4059 15.8194 40.4164 15.7869 40.4297C14.8235 40.8233 13.813 41.0579 12.775 41.1354V34.2109L15.8115 31.1742C16.1548 30.831 16.1548 30.2744 15.8115 29.9313C15.4682 29.5881 14.9118 29.5881 14.5685 29.9313L12.775 31.7249V29.4309C12.775 28.9455 12.3816 28.552 11.8961 28.552C11.4105 28.552 11.0171 28.9455 11.0171 29.4309V34.715L9.32637 33.0246C8.98301 32.6814 8.4266 32.6812 8.08336 33.0246C7.74012 33.3678 7.74012 33.9244 8.08336 34.2676L11.017 37.2014V41.1164C5.98652 40.6127 2.04562 36.3554 2.04562 31.1945ZM12.7748 42.8996C13.7114 42.8402 14.6293 42.6703 15.519 42.392V42.8149C15.519 44.0262 16.5045 45.0116 17.7157 45.0116H21.7955V46.3065H15.7634C14.6825 46.3065 13.8033 47.1858 13.8033 48.2665V48.8326C13.6158 48.8447 13.4299 48.8694 13.2468 48.91C13.0976 48.7774 12.9396 48.6566 12.7747 48.5474L12.7748 42.8996ZM2.91246 53.5645C2.17992 52.8771 1.78852 51.9233 1.83059 50.9057C1.90395 49.1366 3.34641 47.6868 5.11453 47.605C6.46465 47.5431 7.69195 48.242 8.32641 49.4299C8.54367 49.8367 9.03809 50.0065 9.45949 49.8186C9.77449 49.6782 10.1093 49.6071 10.4549 49.6071C11.1751 49.6071 11.8561 49.923 12.3232 50.4738C12.5675 50.7621 12.9688 50.8618 13.3196 50.7216C13.5668 50.6229 13.8258 50.577 14.0916 50.5832C14.4289 51.1353 15.0302 51.508 15.7198 51.5232C15.8839 51.7903 15.9823 52.0943 16.0034 52.403C16.0318 52.8182 15.9329 53.2199 15.7219 53.5645H2.91246Z" fill="#AA8A4B"/>
<path d="M32.6984 24.9993H41.4891C41.9746 24.9993 42.368 24.6057 42.368 24.1204C42.368 23.635 41.9746 23.2415 41.4891 23.2415H32.6984C32.117 23.2415 31.6408 22.7838 31.637 22.2213C31.637 22.2188 31.6368 22.2083 31.6368 22.2057C31.6368 20.9957 32.6219 19.9908 33.8329 19.9658C34.2561 19.957 34.6129 19.6479 34.682 19.2301C35.0402 17.0589 36.8997 15.4829 39.1037 15.4829C41.3185 15.4829 43.1798 17.0677 43.5291 19.2511C43.6043 19.7198 44.0386 20.0439 44.5086 19.984C44.6226 19.9695 44.7143 19.9625 44.7972 19.9625C45.5902 19.9625 46.3323 20.3888 46.734 21.0748C46.8917 21.3441 47.1804 21.5095 47.4924 21.5095H49.9023C50.3797 21.5095 50.7682 21.898 50.7682 22.3754C50.7682 22.853 50.3798 23.2415 49.9023 23.2415H45.0045C44.519 23.2415 44.1256 23.635 44.1256 24.1204C44.1256 24.6057 44.519 24.9993 45.0045 24.9993H49.9023C51.3489 24.9993 52.526 23.8222 52.526 22.3754C52.526 20.9288 51.3489 19.7517 49.9023 19.7517H47.956C47.2647 18.8647 46.2216 18.3014 45.0961 18.2161C44.3339 15.5727 41.9247 13.725 39.1037 13.725C36.2626 13.725 33.8325 15.6067 33.0921 18.2862C31.267 18.6566 29.8789 20.2865 29.8789 22.2056L29.879 22.2333C29.8897 23.7585 31.1545 24.9993 32.6984 24.9993Z" fill="#AA8A4B"/>
</g>
<defs>
<clipPath id="clip0_1505_924">
<rect width="60" height="60" fill="white"/>
</clipPath>
</defs>
</svg>
