<svg width="60" height="60" viewBox="0 0 60 60" fill="none" xmlns="http://www.w3.org/2000/svg">
<path d="M58.8527 36.1765C58.6763 34.9413 58.2351 33.1765 57.2645 31.6765C56.5586 30.5295 55.3233 29.5589 54.7057 28.5001C50.5586 21.353 47.9116 18.706 42.3527 15.1765C41.0292 14.2942 38.9998 13.0589 37.4998 13.5001C36.7057 13.7648 36.1763 14.2942 35.7351 14.7354C33.2645 17.2942 30.7057 20.0295 28.4116 22.853C27.3527 24.1765 26.0292 25.5883 25.3233 27.2648C24.7939 28.5883 24.5292 29.9118 23.7351 31.0589C23.2057 31.853 22.2351 32.5589 21.2645 32.4707C21.1763 32.206 20.9998 32.0295 20.8233 31.7648C19.941 29.8236 19.1468 28.7648 18.3527 27.8824C18.441 27.6177 18.441 27.353 18.5292 27.0883C18.6174 26.3824 17.6468 26.0295 17.2939 26.6471L17.2057 26.7354C17.1174 26.6471 17.0292 26.6471 16.941 26.5589C16.6763 26.1177 16.4998 25.5883 16.2351 25.2354C15.6174 24.5295 14.5586 23.9118 13.3233 23.6471C9.88214 23.0295 5.38214 25.4118 3.88214 29.206C2.99979 31.5001 3.35273 34.0589 4.76449 35.8236C4.85273 35.9118 4.94096 36.0001 5.0292 36.0001C5.11743 36.1765 5.11743 36.353 5.20567 36.6177C3.70567 37.1471 2.2939 37.9412 1.05861 38.9118C0.793905 39.1765 0.705669 39.5295 0.970375 39.8824C1.23508 40.1471 1.58802 40.2354 1.94096 39.9707C5.0292 37.5001 9.26449 36.5295 13.1468 37.6765C14.0292 37.9413 14.8233 38.206 15.7057 38.5589C19.941 40.2354 21.3527 40.4118 26.5586 38.7354C28.588 38.1177 30.5292 37.5001 32.5586 37.7648C33.7939 37.9413 34.941 38.3824 36.1763 38.8236C40.0586 40.3236 41.2057 40.2354 44.1174 39.4413C44.7351 39.2648 45.2645 39.0883 45.8821 39.0001C47.1174 38.8236 48.7057 38.9118 49.4116 40.0589C49.4998 40.2354 49.7645 40.3236 49.941 40.3236C50.4704 40.3236 50.8233 39.7942 50.4704 39.2648C49.4116 37.5883 47.2939 37.3236 45.6174 37.6765C44.9998 37.7648 44.2939 37.9413 43.6763 38.1177C43.3233 38.206 42.8821 38.3824 42.5292 38.4707C42.441 38.3824 42.3527 38.2942 42.2645 38.2942C38.6468 37.3236 36.5292 36.0883 34.4998 33.7942C34.588 33.353 35.0292 33.0001 35.3821 32.4707C36.5292 30.7942 37.1468 28.7648 37.1468 26.7354C38.3821 26.0295 39.1763 24.5295 39.088 23.1177V23.0295C40.941 23.4707 39.8821 23.206 41.7351 23.9118C43.2351 24.5295 45.2645 25.4118 46.588 26.3824C49.4116 28.3236 49.7645 29.9118 50.2939 31.5883C50.6468 32.9118 50.9998 34.3236 52.0586 35.4707C52.3233 35.7354 52.8527 35.7354 53.1174 35.3824C53.6468 34.5883 53.5586 33.706 53.3821 32.9118C54.6174 33.6177 55.7645 35.6471 56.1174 36.8824C56.2939 37.5883 56.7351 38.1177 57.441 38.1177C57.9704 38.1177 58.4116 37.7648 58.588 37.2354C58.941 36.8824 58.941 36.4413 58.8527 36.1765ZM14.9998 28.1471C11.5586 29.4707 12.5292 31.5883 12.2645 31.9413C12.1763 32.0295 11.8233 32.1177 11.2939 32.1177C10.1468 32.206 8.99979 33.0001 8.11743 33.706C7.32332 34.4118 6.70567 34.853 6.5292 34.9412C6.44096 34.9412 6.35273 34.9412 6.26449 34.9412C6.26449 34.7648 6.17626 34.5883 6.17626 34.3236C6.35273 33.5295 6.61743 32.8236 7.14685 31.9413C7.58802 31.3236 8.2939 30.706 8.99979 30.1765C11.3821 28.2354 12.3527 27.1765 15.7057 27.8824C15.6174 27.9707 15.1763 28.1471 14.9998 28.1471ZM15.441 26.206C15.441 26.206 15.5292 26.3824 15.6174 26.4707C13.3233 26.0295 11.5586 26.3824 9.08802 28.5001C7.67626 29.7354 6.08802 30.5295 5.20567 33.2648C3.5292 27.1765 12.5292 22.7648 15.441 26.206ZM12.7057 36.1765C13.0586 35.6471 13.0586 35.1177 12.9704 34.5001C12.8821 33.8824 12.7939 33.706 14.0292 33.5295C14.2057 33.5295 14.3821 33.4413 14.5586 33.4413C15.7939 33.1765 16.8527 32.2942 17.5586 30.8824C17.7351 30.4413 17.9116 30.0001 18.088 29.4707C18.441 29.9118 18.7057 30.353 19.0586 30.8824C20.3821 33.2648 21.441 35.9118 20.8233 38.5589C17.9998 38.3824 15.6174 36.706 12.7057 36.1765ZM52.8527 31.3236C52.6763 31.3236 52.4998 31.4118 52.3233 31.5001C52.0586 31.7648 52.1468 32.206 52.2351 32.6471C51.441 30.353 51.6174 28.0589 47.6468 25.2354C46.1468 24.1765 44.1174 23.2942 42.5292 22.6765C41.0292 22.0589 39.2645 21.353 38.8233 19.9413C38.7351 19.5883 38.2939 19.4118 38.0292 19.5001C37.6763 19.5883 37.4998 20.0295 37.588 20.2942C37.7645 20.7354 37.941 21.1765 38.2939 21.5295V21.706C38.2939 23.206 37.588 24.6177 36.441 25.3236C36.2645 25.4118 36.1763 25.5883 36.1763 25.7648C35.8233 28.9413 35.2057 32.1177 32.2939 32.9118C31.941 33.0001 31.7645 33.353 31.8527 33.706C31.941 33.9707 32.2057 34.2354 32.4704 34.2354H32.6468C32.9116 34.1471 33.1763 34.0589 33.3527 33.9707C34.8527 35.7354 36.2645 37.0589 38.2057 38.0295C37.8527 37.853 37.4116 37.7648 37.0586 37.5883C35.8233 37.1471 34.4998 36.6177 33.088 36.4413C30.7939 36.1765 28.6763 36.8824 26.5586 37.5001C25.2351 37.9413 23.9116 38.2942 22.588 38.4707C23.0292 37.2354 22.588 35.0295 22.1468 33.7942C23.3821 33.6177 24.441 32.7354 25.1468 31.853C26.1174 30.5295 26.3821 29.1177 26.9116 27.7942C27.441 26.3824 28.7645 24.9707 29.7351 23.7354C31.941 20.9118 34.4998 18.2648 36.9704 15.706C37.3233 15.353 37.6763 14.9118 38.1174 14.8236C39.1763 14.4707 41.4704 16.1471 42.441 16.6765C47.9998 20.1177 50.7351 23.9118 53.8233 29.206C54.2645 29.9118 54.7939 30.4413 55.2351 31.0589C55.6763 31.5001 56.0292 31.9412 56.3821 32.4707C57.088 33.6177 57.5292 35.0295 57.7057 36.0001C56.8233 34.3236 55.0586 31.4118 52.8527 31.3236Z" fill="#AA8A4B"/>
<path d="M16.8531 42.7942C12.6178 40.0589 6.97072 41.0295 3.88248 45.0883C3.61778 45.353 3.70601 45.7942 3.97072 46.0589C4.23543 46.3236 4.6766 46.2354 4.94131 45.9707C7.4119 42.7942 11.8237 41.7354 15.5295 43.6765C15.3531 44.1177 15.1766 44.5589 15.2648 45.0883C15.4413 47.5589 18.0884 49.0589 21.1766 47.5589C22.5001 46.9412 23.559 45.9707 24.706 45.2648C27.4413 43.5001 30.8825 42.706 34.1472 43.1471C33.706 44.206 33.8825 45.4412 34.6766 46.2354C35.7354 47.3824 37.4119 47.4707 38.6472 47.206C41.1178 46.5883 42.7942 44.4707 45.0001 43.9412C45.8825 43.7648 47.0295 43.9412 47.6472 44.6471C48.0884 45.1765 48.2648 45.9707 49.059 46.4118C50.7354 47.5589 52.7648 45.706 53.9119 46.2354C54.2648 46.4118 54.6178 46.2354 54.7942 45.8824C54.9707 45.5295 54.7942 45.1765 54.4413 45.0001C53.4707 44.5589 52.5001 44.8236 51.6178 45.0883C49.2354 45.7942 49.6766 45.0001 48.706 43.6765C47.8237 42.6177 46.3237 42.1765 44.7354 42.5295C42.1766 43.0589 40.5884 45.1765 38.3825 45.7942C36.7942 46.1471 35.1178 45.5295 35.2942 43.9412C35.2942 43.7648 35.3825 43.3236 35.7354 43.1471C36.2648 42.8824 36.0884 42.0883 35.559 41.9118C31.6766 41.0295 27.3531 41.8236 24.0001 44.0295C22.8531 44.7354 21.7942 45.706 20.6472 46.2354C19.6766 46.6765 18.3531 46.9412 17.3825 46.3236C16.5884 45.7942 16.3237 44.4707 16.9413 43.9412C17.1178 43.6765 17.206 43.0589 16.8531 42.7942Z" fill="#AA8A4B"/>
<path d="M51.6167 52.5001C48.4403 53.0295 49.1462 52.5883 47.6462 51.5295C46.4991 50.7354 44.8226 50.6472 43.0579 51.1766C41.7344 51.6177 40.4109 52.3236 39.1756 52.6766C38.5579 52.853 36.8814 53.206 35.8226 52.3236C35.1167 51.706 34.9403 50.2942 35.7344 49.853C36.2638 49.5001 36.0873 48.706 35.4697 48.6177C28.2344 47.6472 23.6462 52.3236 23.5579 52.4119C22.5873 53.2942 21.5285 54.1766 20.4697 53.5589C20.0285 53.2942 20.0285 52.853 20.205 52.3236C20.2932 51.706 20.3815 51.0001 19.852 50.3825C19.3226 49.7648 18.5285 49.7648 18.0873 49.7648C14.1167 49.7648 10.2344 51.1766 7.23439 53.7354C6.96969 54.0001 6.88145 54.353 7.14616 54.706C7.41086 54.9707 7.7638 55.0589 8.11674 54.7942C12.705 51.0001 18.5285 50.9119 18.8815 51.2648C19.0579 51.5295 18.705 52.5001 18.7932 53.2942C19.0579 54.706 20.7344 55.4119 22.0579 54.9707C23.1167 54.6177 23.9109 53.9119 24.7932 53.1177C27.352 50.9119 30.705 49.7648 34.0579 49.853C33.0873 52.2354 35.3815 55.2354 39.5285 54.0001C41.9109 53.2942 44.8226 51.2648 46.9403 52.6766C48.352 53.6472 48.2638 54.4413 51.8815 53.8236C52.2344 53.7354 53.5579 53.6472 53.9991 54.353C54.1756 54.706 54.6167 54.7942 54.8815 54.6177C55.2344 54.4413 55.3226 54.0001 55.1462 53.7354C54.5285 52.6766 53.2932 52.2354 51.6167 52.5001Z" fill="#AA8A4B"/>
<path d="M32.7344 8.38236C32.4697 8.64707 32.3815 9.00001 32.6462 9.35295L34.2344 11.3824C34.4991 11.6471 34.852 11.7353 35.205 11.4706C35.4697 11.2059 35.5579 10.853 35.2932 10.5L33.705 8.4706C33.4403 8.20589 32.9991 8.11766 32.7344 8.38236Z" fill="#AA8A4B"/>
<path d="M36.7934 4.94122C36.4405 4.94122 36.1758 5.29416 36.1758 5.6471L36.617 9.61769C36.617 9.97063 36.9699 10.2353 37.2346 10.2353C37.5875 10.2353 37.9405 9.8824 37.8523 9.52946L37.4111 5.55887C37.4993 5.11769 37.1464 4.85299 36.7934 4.94122Z" fill="#AA8A4B"/>
<path d="M41.2935 7.76476L40.4112 10.4118C40.3229 10.7648 40.4994 11.1177 40.8523 11.2059C41.2053 11.2942 41.5582 11.1177 41.6465 10.7648L42.5288 8.1177C42.617 7.76476 42.4406 7.41182 42.0876 7.32358C41.8229 7.23535 41.47 7.50005 41.2935 7.76476Z" fill="#AA8A4B"/>
</svg>
