<svg width="60" height="60" viewBox="0 0 60 60" fill="none" xmlns="http://www.w3.org/2000/svg">
<path fill-rule="evenodd" clip-rule="evenodd" d="M54.5287 10.7836C54.4743 10.786 54.4201 10.7923 54.3665 10.8023C54.3665 10.8023 40.5377 13.3647 28.9892 18.7365C28.3936 19.0045 28.3662 19.7075 28.6417 20.2996C28.9171 20.8917 29.389 21.1445 29.9776 20.8617C39.0487 16.6423 49.3772 14.248 53.0702 13.4665C52.4891 16.1809 51.1712 21.85 49.0424 28.0763C46.0989 36.6852 41.5163 46.087 36.0037 49.3552C34.0314 50.5245 31.4692 51.2779 28.8497 51.479C28.7007 51.8685 27.8866 52.2125 27.7551 52.7384C27.5966 53.3724 28.3784 53.8748 29.0293 53.8159C31.9719 53.59 34.848 52.7652 37.1989 51.3714C43.8462 47.4305 48.2536 37.6278 51.2601 28.8346C54.2667 20.0413 55.7334 12.1692 55.7334 12.1692C55.8718 11.4272 55.2828 10.7497 54.5287 10.7836Z" fill="#AA8A4B"/>
<path fill-rule="evenodd" clip-rule="evenodd" d="M20.2998 2.52233C20.1155 2.52793 19.9352 2.5769 19.7734 2.66527C19.6117 2.75363 19.473 2.8789 19.3688 3.0309C19.3688 3.0309 14.8397 9.6345 10.7477 17.9783C6.656 26.322 2.84089 36.3699 4.75456 43.857C5.61929 47.2395 7.73803 50.5769 10.5067 53.1306C13.2754 55.6843 16.7286 57.4782 20.3352 57.4782C23.9421 57.4782 27.3951 55.6843 30.1638 53.1306C32.9326 50.5769 35.0515 47.2395 35.9159 43.857C37.8297 36.37 34.0147 26.322 29.9231 17.9783C25.8313 9.6345 21.3019 3.0309 21.3019 3.0309C21.1909 2.86898 21.0409 2.73756 20.8658 2.6487C20.6907 2.55984 20.496 2.51637 20.2998 2.52233ZM20.3352 5.83013C21.8436 8.1599 24.9209 13.1015 27.8186 19.0103C31.8246 27.1791 35.2324 37.0676 33.6452 43.2766C32.9199 46.1143 31.0262 49.1468 28.5749 51.4078C26.1234 53.6689 23.1487 55.1345 20.3352 55.1345C17.5219 55.1345 14.5472 53.6689 12.0959 51.4078C9.6445 49.1468 7.75068 46.1143 7.02541 43.2766C5.43834 37.0676 8.84612 27.1791 12.8521 19.0103C15.7499 13.1015 18.827 8.15989 20.3352 5.83013Z" fill="#AA8A4B"/>
<path fill-rule="evenodd" clip-rule="evenodd" d="M20.3943 20.724C19.8813 20.7008 19.4132 21.0143 19.2389 21.4973C16.5441 28.6524 17.2323 36.0069 18.2065 42.2187C18.6935 45.3246 19.2545 48.1557 19.5285 50.5127C19.8025 52.8697 19.7442 54.7313 19.2614 55.8376C18.9972 56.4319 19.2138 57.4082 19.8636 57.3877C20.6498 57.3629 21.1577 57.3665 21.4095 56.7751C22.2092 54.9426 22.1478 52.7465 21.8567 50.2419C21.5655 47.7373 20.9996 44.9032 20.5217 41.8557C19.5659 35.7607 18.9716 28.856 21.4321 22.3234C21.726 21.5754 21.1972 20.7603 20.3943 20.724Z" fill="#AA8A4B"/>
<path fill-rule="evenodd" clip-rule="evenodd" d="M24.759 27.584C24.4546 27.5931 24.1657 27.7202 23.9533 27.9386L17.7492 34.1426C17.533 34.611 17.576 35.364 17.7386 35.8111C17.9615 36.4252 18.9512 36.2681 19.4071 35.8L25.6113 29.596C26.3779 28.8508 25.8281 27.5523 24.7595 27.5841L24.759 27.584Z" fill="#AA8A4B"/>
<path fill-rule="evenodd" clip-rule="evenodd" d="M13.9317 39.3224C12.8798 39.3224 12.361 40.6015 13.1152 41.3347L19.3193 47.5388C19.7755 48.0046 20.755 48.1574 20.9853 47.5474C21.1306 47.1625 20.677 46.4168 20.977 45.8815L14.773 39.6774C14.5522 39.4503 14.2488 39.3222 13.9322 39.3224L13.9317 39.3224Z" fill="#AA8A4B"/>
<path fill-rule="evenodd" clip-rule="evenodd" d="M41.7509 23.6573C41.5664 23.6517 41.3837 23.6896 41.2167 23.7681C37.9716 25.2375 35.211 27.2633 32.8187 29.5153C32.3437 29.9547 32.7476 30.5842 32.7567 31.1831C32.7661 31.8366 33.9555 31.6764 34.4252 31.2218C36.6734 29.1056 39.2206 27.2446 42.1835 25.9031C43.33 25.4032 43.0012 23.6954 41.7509 23.6573Z" fill="#AA8A4B"/>
<path fill-rule="evenodd" clip-rule="evenodd" d="M34.3194 31.656C34.1642 31.6538 34.01 31.6825 33.8659 31.7404C33.7218 31.7983 33.5906 31.8843 33.48 31.9933C33.3694 32.1024 33.2817 32.2323 33.2217 32.3755C33.1618 32.5188 33.1309 32.6726 33.1309 32.8279C33.1309 32.9832 33.1618 33.1369 33.2217 33.2802C33.2817 33.4235 33.3694 33.5534 33.48 33.6625C33.5906 33.7715 33.7218 33.8574 33.8659 33.9154C34.01 33.9733 34.1642 34.0019 34.3194 33.9998H39.9958C40.1511 34.0019 40.3053 33.9733 40.4494 33.9154C40.5935 33.8574 40.7247 33.7715 40.8353 33.6625C40.9458 33.5534 41.0336 33.4235 41.0935 33.2802C41.1535 33.1369 41.1844 32.9832 41.1844 32.8279C41.1844 32.6726 41.1535 32.5188 41.0935 32.3755C41.0336 32.2323 40.9458 32.1024 40.8353 31.9933C40.7247 31.8843 40.5935 31.7983 40.4494 31.7404C40.3053 31.6825 40.1511 31.6538 39.9958 31.656H34.3194Z" fill="#AA8A4B"/>
</svg>
