<svg width="60" height="60" viewBox="0 0 60 60" fill="none" xmlns="http://www.w3.org/2000/svg">
<g clip-path="url(#clip0_1505_928)">
<path d="M60 38.1445V36.3867H58.0664V31.5234C58.0664 29.4234 56.3578 27.7148 54.2578 27.7148C52.1578 27.7148 50.4492 29.4234 50.4492 31.5234V36.3867H46.8164V31.5234C46.8164 29.4234 45.1078 27.7148 43.0078 27.7148C40.9078 27.7148 39.1992 29.4234 39.1992 31.5234V36.3867H27.9785L24.4629 31.6992H13.6523V31.1719C13.6523 29.3948 12.2067 27.9492 10.4297 27.9492H5.18426L2.5132 23.4571L1.0023 24.3554L5.91902 32.6244L4.13203 36.3867H0V38.1445H12.5391V36.3867H6.07793L7.46953 33.457H23.584L25.7812 36.3867H14.2969V38.1445H39.1992V39.9023H23.6719V41.6602H39.1992V50.0009C37.0211 50.1136 35.8052 50.6828 34.6262 51.2354C33.4317 51.7954 32.3034 52.3242 29.9993 52.3242C27.6952 52.3242 26.5669 51.7954 25.3725 51.2354C24.0564 50.6184 22.6954 49.9805 19.9997 49.9805C17.304 49.9805 15.9429 50.6184 14.6268 51.2354C13.4323 51.7954 12.304 52.3242 9.99984 52.3242C7.6957 52.3242 6.56754 51.7954 5.37316 51.2354C4.05668 50.6184 2.69566 49.9805 0 49.9805V51.7383C2.30414 51.7383 3.43242 52.2672 4.6268 52.8271C5.94293 53.4441 7.30395 54.082 9.99961 54.082C12.6953 54.082 14.0564 53.4441 15.3725 52.8271C16.567 52.2672 17.6953 51.7383 19.9995 51.7383C22.3036 51.7383 23.4318 52.2672 24.6261 52.8271C25.9424 53.4441 27.3034 54.082 29.9991 54.082C32.6948 54.082 34.0559 53.4441 35.3721 52.8271C36.5666 52.2672 37.6949 51.7383 39.999 51.7383C42.3034 51.7383 43.4317 52.2672 44.6262 52.8271C45.9424 53.4441 47.3036 54.082 49.9995 54.082C52.6954 54.082 54.0565 53.4441 55.3727 52.8271C56.5672 52.2672 57.6956 51.7383 59.9999 51.7383V49.9805C57.304 49.9805 55.9429 50.6184 54.6266 51.2354C53.8916 51.58 53.1812 51.9125 52.2069 52.1176V41.6602H60V39.9023H52.207V38.1445H60ZM52.207 31.5234C52.207 30.3927 53.1271 29.4727 54.2578 29.4727C55.3886 29.4727 56.3086 30.3927 56.3086 31.5234V36.3867H52.207V31.5234ZM11.8945 31.6992H7.41398L6.22945 29.707H10.4297C11.2375 29.707 11.8945 30.3641 11.8945 31.1719V31.6992ZM40.957 31.5234C40.957 30.3927 41.8771 29.4727 43.0078 29.4727C44.1386 29.4727 45.0586 30.3927 45.0586 31.5234V36.3867H40.957V31.5234ZM50.4492 52.317C50.3043 52.3216 50.1548 52.3242 49.9996 52.3242C47.6952 52.3242 46.5669 51.7954 45.3724 51.2354C44.222 50.6963 43.0372 50.1409 40.957 50.0095V48.6914H50.4492V52.317ZM50.4492 46.9336H40.957V45.1758H50.4492V46.9336ZM50.4492 39.9023H47.3438V41.6602H50.4492V43.418H40.957V41.6602H45.5859V39.9023H40.957V38.1445H50.4492V39.9023Z" fill="#AA8A4B"/>
<path d="M0 39.9023H21.9141V41.6602H0V39.9023Z" fill="#AA8A4B"/>
<path d="M49.9996 58.1836C47.6952 58.1836 46.5669 57.6547 45.3724 57.0948C44.0562 56.4778 42.695 55.8398 39.9991 55.8398C37.3034 55.8398 35.9423 56.4778 34.6261 57.0948C33.4316 57.6547 32.3033 58.1836 29.9992 58.1836C27.695 58.1836 26.5668 57.6547 25.3724 57.0948C24.0562 56.4778 22.6952 55.8398 19.9996 55.8398C17.3039 55.8398 15.9428 56.4778 14.6266 57.0948C13.4321 57.6547 12.3039 58.1836 9.99973 58.1836C7.69559 58.1836 6.56742 57.6547 5.37305 57.0948C4.05668 56.4778 2.69566 55.8398 0 55.8398V57.5977C2.30414 57.5977 3.43242 58.1265 4.6268 58.6864C5.94293 59.3034 7.30395 59.9414 9.99961 59.9414C12.6953 59.9414 14.0564 59.3034 15.3725 58.6864C16.567 58.1265 17.6953 57.5977 19.9995 57.5977C22.3036 57.5977 23.4318 58.1265 24.6261 58.6864C25.9424 59.3034 27.3034 59.9414 29.9991 59.9414C32.6948 59.9414 34.0559 59.3034 35.3721 58.6864C36.5666 58.1265 37.6949 57.5977 39.999 57.5977C42.3034 57.5977 43.4317 58.1265 44.6262 58.6864C45.9424 59.3034 47.3036 59.9414 49.9995 59.9414C52.6954 59.9414 54.0565 59.3034 55.3727 58.6864C56.5672 58.1265 57.6956 57.5977 59.9999 57.5977V55.8398C57.304 55.8398 55.9429 56.4778 54.6266 57.0948C53.4322 57.6547 52.3039 58.1836 49.9996 58.1836Z" fill="#AA8A4B"/>
<path d="M5.33203 13.3008C7.34414 13.3008 8.84766 14.1979 8.84766 15H10.6055C10.6055 14.3503 12.3988 12.8912 15.293 12.6364V25.7812H17.0508V12.6364C19.945 12.8912 21.7383 14.3503 21.7383 15H23.4961C23.4961 14.1979 24.9996 13.3008 27.0117 13.3008C29.0238 13.3008 30.5273 14.1979 30.5273 15H32.2852V14.9121C32.2852 11.1517 30.5575 7.3759 27.5452 4.55309C24.4523 1.6548 20.4132 0.0585938 16.1719 0.0585938C11.9305 0.0585938 7.89141 1.6548 4.79859 4.55309C1.78629 7.3759 0.0585938 11.1517 0.0585938 14.9121V15H1.81641C1.81641 14.1979 3.31992 13.3008 5.33203 13.3008ZM30.1946 12.2254C29.3157 11.7952 28.217 11.543 27.0117 11.543C25.5976 11.543 24.3307 11.8907 23.3929 12.4651C23.157 9.54469 22.5164 6.84621 21.5284 4.6902C21.1186 3.79605 20.6606 3.0232 20.1646 2.37773C25.077 3.77508 29.0508 7.6323 30.1946 12.2254ZM16.1719 1.81641C17.51 1.81641 18.88 3.13078 19.9304 5.4225C20.8013 7.32246 21.3795 9.70113 21.6165 12.2972C21.4679 12.2018 21.3122 12.1092 21.1479 12.0202C19.7421 11.259 17.9749 10.8398 16.1719 10.8398C14.3688 10.8398 12.6016 11.259 11.1959 12.0202C11.0316 12.1091 10.8758 12.2018 10.7272 12.2972C10.9643 9.70125 11.5425 7.32246 12.4133 5.4225C13.4638 3.13078 14.8337 1.81641 16.1719 1.81641ZM12.1792 2.37762C11.6831 3.02309 11.2252 3.79594 10.8154 4.69008C9.82723 6.84598 9.1868 9.54457 8.9509 12.465C8.01305 11.8907 6.74613 11.543 5.33203 11.543C4.12676 11.543 3.02801 11.7952 2.1491 12.2254C3.29297 7.6323 7.2668 3.77508 12.1792 2.37762Z" fill="#AA8A4B"/>
<path d="M15.293 27.5391H17.0508V29.2969H15.293V27.5391Z" fill="#AA8A4B"/>
<path d="M2.34375 43.418H4.10156V45.1758H2.34375V43.418Z" fill="#AA8A4B"/>
<path d="M12.8906 43.418H14.6484V45.1758H12.8906V43.418Z" fill="#AA8A4B"/>
<path d="M23.4375 43.418H25.1953V45.1758H23.4375V43.418Z" fill="#AA8A4B"/>
<path d="M33.9844 43.418H35.7422V45.1758H33.9844V43.418Z" fill="#AA8A4B"/>
<path d="M55.0781 43.418H56.8359V45.1758H55.0781V43.418Z" fill="#AA8A4B"/>
</g>
<defs>
<clipPath id="clip0_1505_928">
<rect width="60" height="60" fill="white"/>
</clipPath>
</defs>
</svg>
