<svg xmlns="http://www.w3.org/2000/svg" width="207" height="207" viewBox="0 0 207 207">
  <g id="Group_3329" data-name="Group 3329" transform="translate(-257 -164)">
    <rect id="Rectangle_3894" data-name="Rectangle 3894" width="207" height="207" rx="21" transform="translate(257 164)" fill="rgba(24,144,255,0)"/>
    <path id="chat-1_1_" data-name="chat-1 (1)" d="M98.088,2H10.9A11.045,11.045,0,0,0,0,12.9V72.841a11.045,11.045,0,0,0,10.9,10.9H62.773L80.4,103.126a1.816,1.816,0,0,0,1.342.594,1.837,1.837,0,0,0,.656-.122,1.818,1.818,0,0,0,1.161-1.695V83.739H98.088a11.045,11.045,0,0,0,10.9-10.9V12.9A11.045,11.045,0,0,0,98.088,2Z" transform="translate(305.958 215.82)" fill="#fff"/>
  </g>
</svg>
