<svg width="60" height="60" viewBox="0 0 60 60" fill="none" xmlns="http://www.w3.org/2000/svg">
<g clip-path="url(#clip0_2238_2841)">
<path d="M49.326 9.25659C47.8488 9.25659 46.5888 10.2219 46.1612 11.5687H39.6844C39.2568 10.2219 37.9968 9.25659 36.5196 9.25659C34.6887 9.25659 33.1992 10.746 33.1992 12.577C33.1992 13.2666 33.4102 13.9255 33.795 14.4759C33.4102 15.0263 33.1992 15.6851 33.1992 16.3748C33.1992 18.2057 34.6887 19.6952 36.5196 19.6952C37.9968 19.6952 39.2568 18.7299 39.6844 17.383H46.1612C46.5888 18.7299 47.8488 19.6952 49.326 19.6952C51.1569 19.6952 52.6464 18.2057 52.6464 16.3748C52.6464 15.6851 52.4354 15.0263 52.0506 14.4759C52.4354 13.9255 52.6464 13.2666 52.6464 12.577C52.6464 10.7462 51.1569 9.25659 49.326 9.25659ZM50.3073 15.1593C50.6767 15.4582 50.8886 15.9012 50.8886 16.3749C50.8886 17.2366 50.1877 17.9375 49.326 17.9375C48.4943 17.9375 47.809 17.2878 47.7657 16.4584C47.7414 15.9914 47.3556 15.6253 46.888 15.6253H38.9576C38.49 15.6253 38.1042 15.9915 38.0798 16.4584C38.0365 17.2878 37.3512 17.9375 36.5196 17.9375C35.6579 17.9375 34.957 17.2366 34.957 16.3749C34.957 15.9012 35.1689 15.4582 35.5383 15.1593C35.7446 14.9925 35.8645 14.7413 35.8645 14.4759C35.8645 14.2105 35.7446 13.9594 35.5383 13.7925C35.1689 13.4936 34.957 13.0505 34.957 12.5769C34.957 11.7152 35.6579 11.0143 36.5196 11.0143C37.3513 11.0143 38.0366 11.664 38.0798 12.4934C38.1042 12.9603 38.49 13.3265 38.9576 13.3265H46.888C47.3556 13.3265 47.7414 12.9603 47.7657 12.4934C47.8091 11.664 48.4944 11.0143 49.326 11.0143C50.1877 11.0143 50.8886 11.7152 50.8886 12.5769C50.8886 13.0505 50.6767 13.4936 50.3073 13.7925C50.1009 13.9593 49.9811 14.2105 49.9811 14.4759C49.9811 14.7413 50.1009 14.9925 50.3073 15.1593Z" fill="#AA8A4B"/>
<path d="M57.0552 47.7318C57.1541 47.2913 57.1891 46.8356 57.1573 46.3802C56.9932 44.0356 55.022 42.1459 52.6697 42.0779C51.9506 42.0583 51.2435 42.2032 50.6009 42.4979C49.8393 40.94 48.2389 39.8981 46.4357 39.8981C46.3302 39.8981 46.2257 39.9024 46.1217 39.9093V24.6696H55.2586C56.7125 24.6696 57.8953 23.4868 57.8953 22.0329V6.91895C57.8953 5.465 56.7125 4.28223 55.2586 4.28223H51.8573C51.372 4.28223 50.9784 4.67574 50.9784 5.16113C50.9784 5.64652 51.372 6.04004 51.8573 6.04004H55.2586C55.7433 6.04004 56.1375 6.43426 56.1375 6.91895V22.0329C56.1375 22.5175 55.7433 22.9118 55.2586 22.9118H30.5859C30.1012 22.9118 29.707 22.5175 29.707 22.0329V6.91895C29.707 6.43426 30.1012 6.04004 30.5859 6.04004H47.7557C48.2411 6.04004 48.6346 5.64652 48.6346 5.16113C48.6346 4.67574 48.2411 4.28223 47.7557 4.28223H30.5859C29.132 4.28223 27.9492 5.465 27.9492 6.91895V22.0329C27.9492 23.4868 29.132 24.6696 30.5859 24.6696H39.7228V32.1093C39.7228 32.5947 40.1163 32.9882 40.6017 32.9882C41.0871 32.9882 41.4806 32.5947 41.4806 32.1093V24.6696H44.3638V40.3904C43.4617 40.8424 42.7194 41.5793 42.2704 42.498C42.0163 42.3814 41.7518 42.2893 41.4807 42.2205V36.2109C41.4807 35.7255 41.0872 35.332 40.6018 35.332C40.1164 35.332 39.7229 35.7255 39.7229 36.2109V42.1181C37.5872 42.4084 35.8668 44.1966 35.7139 46.3802C35.6821 46.8355 35.717 47.2913 35.816 47.7318C34.0828 48.4168 32.8712 50.1223 32.8712 52.0471V53.9599H25.6091C25.8129 53.5395 25.9954 53.1095 26.1547 52.6711C28.9139 52.5539 31.4081 50.8489 32.4953 48.2709C33.2399 46.5054 33.2597 44.559 32.5514 42.7903C31.8432 41.0219 30.4854 39.6271 28.7275 38.8626L28.6543 38.8313C27.9956 38.5534 27.2483 38.7388 26.7949 39.2928C26.3435 39.8445 26.3096 40.6102 26.7108 41.1984C27.7738 42.7572 27.96 44.7192 27.2086 46.4466C27.128 46.6319 27.0353 46.8112 26.9347 46.9858C26.8044 45.2909 26.3582 43.6255 25.6141 42.0904L23.2527 37.2184L24.7489 35.1979C25.367 34.3633 25.7073 33.3318 25.7073 32.2934V30.7801C26.4915 29.2855 27.0227 26.6504 25.4897 22.3313C25.2446 21.6407 24.6715 21.132 23.9565 20.9704C23.2407 20.8085 22.5037 21.0219 21.9847 21.5408L19.5184 24.0071C19.0818 23.9237 18.6359 23.8755 18.184 23.8658C18.0993 23.864 18.015 23.8632 17.9292 23.8636C17.4236 23.8657 16.9215 23.9175 16.4295 24.0141L13.9561 21.5407C13.4372 21.0219 12.7002 20.8086 11.9844 20.9703C11.2693 21.1318 10.6962 21.6406 10.4511 22.3312C8.9182 26.6504 9.44941 29.2854 10.2336 30.78V32.2933C10.2336 33.3317 10.5739 34.3633 11.192 35.1978L12.6882 37.2182L11.2915 40.1C10.4225 39.669 9.44766 39.4748 8.46223 39.5482C7.48102 39.6213 6.5352 39.9648 5.72695 40.5418C5.33191 40.8239 5.24027 41.3728 5.52223 41.7678C5.8043 42.1629 6.35297 42.2545 6.74824 41.9725C7.29469 41.5825 7.93242 41.3504 8.59277 41.3012C9.26695 41.2511 9.93305 41.3848 10.525 41.6814L10.3268 42.0903C9.31852 44.1705 8.85527 46.49 8.98711 48.798C9.08953 50.5909 9.55113 52.3489 10.332 53.9596H2.32477C2.01223 53.9596 1.75781 53.7054 1.75781 53.3927V51.4495C1.75781 49.6404 3.10465 48.0752 4.8907 47.8087C5.16656 47.7676 5.40656 47.5979 5.53734 47.3516C5.66812 47.1052 5.67422 46.8114 5.55375 46.5598C5.3059 46.0423 5.18566 45.4843 5.19656 44.9013C5.20559 44.416 4.81957 44.0152 4.33418 44.0062C3.85102 43.9968 3.44813 44.3832 3.4391 44.8686C3.42973 45.3685 3.48609 45.8566 3.60727 46.3285C1.49285 47.0912 0 49.1355 0 51.4497V53.3929C0 54.6748 1.04285 55.7177 2.32477 55.7177H57.8395C59.0309 55.7177 60.0001 54.7484 60.0001 53.5571V52.047C60 50.1223 58.7884 48.4168 57.0552 47.7318ZM26.8609 49.7758C27.7059 49.0627 28.3799 48.1614 28.8206 47.1479C29.7387 45.0371 29.5989 42.6623 28.4639 40.6878C29.5821 41.294 30.4446 42.2579 30.9197 43.4439C31.4548 44.78 31.4392 46.2516 30.8756 47.5879C30.1325 49.3502 28.5199 50.5732 26.6756 50.8569C26.7518 50.4993 26.8136 50.1388 26.8609 49.7758ZM23.2276 22.784C23.3525 22.6591 23.4952 22.6686 23.5691 22.6852C23.6426 22.7019 23.7745 22.7544 23.8331 22.9195C24.2306 24.0395 24.7227 25.7698 24.709 27.4343C24.6295 27.3137 24.5466 27.1953 24.4583 27.0805C23.6296 26.0016 22.5768 25.1659 21.3956 24.6159L23.2276 22.784ZM11.2318 27.4341C11.2182 25.7697 11.7102 24.0395 12.1077 22.9195C12.1663 22.7544 12.2984 22.7019 12.3718 22.6852C12.4458 22.6687 12.5885 22.6591 12.7133 22.784L14.5542 24.6249C13.3627 25.1789 12.2993 26.0175 11.4813 27.0821C11.3934 27.1964 11.3108 27.3141 11.2318 27.4341ZM12.6046 34.1519C12.2092 33.618 11.9914 32.958 11.9914 32.2937V30.7541C11.9914 29.8187 12.3053 28.8949 12.8753 28.1531C14.0868 26.5761 15.9789 25.6298 17.9364 25.6216C18.0061 25.6216 18.0764 25.622 18.1465 25.6235C20.0698 25.665 21.8623 26.5863 23.066 28.1531C23.6359 28.8949 23.9497 29.8186 23.9497 30.7539V32.2936C23.9497 32.9579 23.732 33.6179 23.3365 34.1519L22.1977 35.6896C21.79 33.7297 20.0497 32.2524 17.9707 32.2524C15.8917 32.2524 14.1513 33.7297 13.7436 35.6895L12.6046 34.1519ZM17.473 35.332H18.4679C18.9533 35.332 19.3468 34.9385 19.3468 34.4531C19.3468 34.4394 19.3454 34.4259 19.3447 34.4123C20.0566 34.8673 20.5301 35.6642 20.5301 36.57V39.0043C20.5301 39.3055 20.285 39.5506 19.9837 39.5506C19.8673 39.5506 19.7517 39.5124 19.6581 39.443C19.1534 39.0684 18.5619 38.881 17.9704 38.881C17.3788 38.881 16.7873 39.0684 16.2826 39.443C16.1891 39.5124 16.0736 39.5506 15.9571 39.5506C15.6558 39.5506 15.4107 39.3056 15.4107 39.0043V36.57C15.4107 35.6641 15.8842 34.8673 16.5961 34.4122C16.5955 34.4258 16.594 34.4391 16.594 34.453C16.5941 34.9385 16.9875 35.332 17.473 35.332ZM23.6224 53.9599H23.4604V53.623C23.4604 53.0377 23.3029 52.4621 23.005 51.9583L22.8394 51.6782C22.7016 51.4453 22.6288 51.179 22.6288 50.9083V46.5234C22.6288 46.038 22.2353 45.6445 21.7499 45.6445C21.2645 45.6445 20.871 46.038 20.871 46.5234V50.9082C20.871 51.4934 21.0285 52.0691 21.3264 52.5729L21.492 52.8529C21.6298 53.0859 21.7025 53.3521 21.7025 53.6229V53.9598H18.8493V46.5234C18.8493 46.038 18.4557 45.6445 17.9704 45.6445C17.485 45.6445 17.0914 46.038 17.0914 46.5234V53.9599H14.2383V53.623C14.2383 53.3523 14.3112 53.086 14.449 52.8529L14.6145 52.5731C14.9123 52.0694 15.0698 51.4938 15.0698 50.9083V46.5234C15.0698 46.038 14.6763 45.6445 14.1909 45.6445C13.7055 45.6445 13.312 46.038 13.312 46.5234V50.9082C13.312 51.179 13.2393 51.4452 13.1013 51.6782L12.9359 51.9582C12.638 52.462 12.4806 53.0376 12.4806 53.6229V53.9598H12.3185C10.3361 50.5471 10.1759 46.4321 11.9086 42.8571L13.6646 39.2341C13.7803 40.3971 14.7642 41.3084 15.9572 41.3084C16.4484 41.3084 16.9362 41.1472 17.3305 40.8543C17.7135 40.5702 18.2278 40.5702 18.6104 40.8543C19.0049 41.1472 19.4926 41.3084 19.9839 41.3084C21.1768 41.3084 22.1606 40.3971 22.2763 39.234L24.0323 42.8571C25.7651 46.4321 25.6048 50.5472 23.6224 53.9599ZM58.2422 53.5571C58.2422 53.7792 58.0615 53.9599 57.8394 53.9599H34.6289V52.0471C34.6289 50.633 35.6816 49.4096 37.0775 49.2014C37.3534 49.1602 37.5934 48.9905 37.7242 48.7442C37.855 48.4979 37.8611 48.2041 37.7406 47.9525C37.5267 47.5059 37.4323 47.0048 37.4674 46.503C37.5691 45.0492 38.7923 43.8773 40.2521 43.8351C40.9591 43.8146 41.6427 44.052 42.1821 44.5031C42.4213 44.703 42.7482 44.7615 43.0418 44.6565C43.3352 44.5515 43.5512 44.2991 43.6093 43.9929C43.8666 42.6389 45.0551 41.6561 46.4355 41.6561C47.816 41.6561 49.0045 42.6389 49.2618 43.9929C49.3199 44.2991 49.5359 44.5516 49.8294 44.6565C50.1231 44.7615 50.45 44.703 50.6891 44.5031C51.2285 44.052 51.9129 43.8151 52.6191 43.8351C54.0789 43.8772 55.3022 45.0491 55.4039 46.503C55.4389 47.0047 55.3445 47.5059 55.1306 47.9525C55.0102 48.2041 55.0163 48.4979 55.147 48.7442C55.2778 48.9907 55.5178 49.1602 55.7937 49.2014C57.1895 49.4095 58.2422 50.6329 58.2422 52.0471V53.5571Z" fill="#AA8A4B"/>
<path d="M15.7754 31.4268C16.2608 31.4268 16.6543 31.0332 16.6543 30.5479V29.8828C16.6543 29.3974 16.2608 29.0039 15.7754 29.0039C15.29 29.0039 14.8965 29.3974 14.8965 29.8828V30.5479C14.8965 31.0332 15.29 31.4268 15.7754 31.4268Z" fill="#AA8A4B"/>
<path d="M20.1641 31.4268C20.6495 31.4268 21.043 31.0332 21.043 30.5479V29.8828C21.043 29.3974 20.6495 29.0039 20.1641 29.0039C19.6787 29.0039 19.2852 29.3974 19.2852 29.8828V30.5479C19.2852 31.0332 19.6787 31.4268 20.1641 31.4268Z" fill="#AA8A4B"/>
</g>
<defs>
<clipPath id="clip0_2238_2841">
<rect width="60" height="60" fill="white"/>
</clipPath>
</defs>
</svg>
