<svg width="60" height="59" viewBox="0 0 60 59" fill="none" xmlns="http://www.w3.org/2000/svg">
<path d="M13.125 7.375V47.9375H46.875V7.375H13.125ZM11.25 3.6875H48.75C49.2473 3.6875 49.7242 3.88175 50.0758 4.22752C50.4275 4.57329 50.625 5.04226 50.625 5.53125V49.7812C50.625 50.2702 50.4275 50.7392 50.0758 51.085C49.7242 51.4307 49.2473 51.625 48.75 51.625H11.25C10.7527 51.625 10.2758 51.4307 9.92418 51.085C9.57254 50.7392 9.375 50.2702 9.375 49.7812V5.53125C9.375 5.04226 9.57254 4.57329 9.92418 4.22752C10.2758 3.88175 10.7527 3.6875 11.25 3.6875Z" fill="#AA8A4B"/>
<path d="M3.75 47.9375H56.25V51.625H3.75V47.9375ZM18.75 11.0625H26.25V16.5938H18.75V11.0625Z" fill="#AA8A4B"/>
<path d="M22.5 47.9375H37.5V44.25C37.5 42.294 36.7098 40.4182 35.3033 39.0351C33.8968 37.652 31.9891 36.875 30 36.875C28.0109 36.875 26.1032 37.652 24.6967 39.0351C23.2902 40.4182 22.5 42.294 22.5 44.25V47.9375ZM30 33.1875C32.9837 33.1875 35.8452 34.353 37.955 36.4276C40.0647 38.5023 41.25 41.316 41.25 44.25V51.625H18.75V44.25C18.75 41.316 19.9353 38.5023 22.045 36.4276C24.1548 34.353 27.0163 33.1875 30 33.1875ZM18.75 22.125H26.25V27.6562H18.75V22.125ZM33.75 11.0625H41.25V16.5938H33.75V11.0625ZM33.75 22.125H41.25V27.6562H33.75V22.125Z" fill="#AA8A4B"/>
</svg>
