<svg width="60" height="60" viewBox="0 0 60 60" fill="none" xmlns="http://www.w3.org/2000/svg">
<g clip-path="url(#clip0_2420_2111)">
<path d="M27.0001 7.30668C26.7596 6.88456 26.2225 6.73728 25.8004 6.97781C25.7902 6.98351 25.5455 7.12339 25.1566 7.37852C24.7504 7.64486 24.637 8.19015 24.9035 8.59637C25.1699 9.00278 25.7152 9.11594 26.1213 8.8495C26.4565 8.62978 26.6659 8.50942 26.6717 8.50612C27.0932 8.26539 27.2404 7.72851 27.0001 7.30668Z" fill="#AA8A4B"/>
<path d="M34.2975 48.6296C34.0017 48.977 33.6893 49.3281 33.3693 49.6731C33.0389 50.0291 33.0598 50.5857 33.4159 50.9161C33.7711 51.2458 34.3278 51.2266 34.6588 50.8696C34.9957 50.5064 35.3248 50.1366 35.6366 49.7704C35.9516 49.4005 35.9072 48.8454 35.5374 48.5305C35.1678 48.2153 34.6127 48.2597 34.2975 48.6296Z" fill="#AA8A4B"/>
<path d="M38.7904 43.2562C38.3521 43.0466 37.827 43.2318 37.6173 43.6701C37.4271 44.0677 37.2127 44.4746 36.98 44.8793C36.7379 45.3005 36.8829 45.8381 37.3042 46.0802C37.7245 46.322 38.2624 46.1781 38.5051 45.7561C38.7598 45.3131 38.995 44.8667 39.2044 44.4293C39.4138 43.9911 39.2287 43.466 38.7904 43.2562Z" fill="#AA8A4B"/>
<path d="M40.597 39.554C40.6195 39.2709 40.631 38.9859 40.631 38.7071C40.631 38.4683 40.6227 38.2278 40.6062 37.9919C40.5721 37.5073 40.1506 37.1417 39.6673 37.1761C39.1827 37.2101 38.8173 37.6304 38.8514 38.115C38.865 38.31 38.872 38.5091 38.8719 38.707C38.8719 38.9397 38.8624 39.1779 38.8436 39.415C38.8052 39.8993 39.1666 40.323 39.6509 40.3614C40.1336 40.3999 40.5585 40.0392 40.597 39.554Z" fill="#AA8A4B"/>
<path d="M37.9875 31.8802C37.6711 31.5114 37.1158 31.469 36.7471 31.7852C36.3784 32.1015 36.3359 32.6569 36.6522 33.0256C36.9463 33.3686 37.2149 33.7229 37.4502 34.0788C37.7182 34.484 38.2639 34.5952 38.669 34.3272C39.0742 34.0591 39.1855 33.5136 38.9175 33.1083C38.642 32.6917 38.329 32.2785 37.9875 31.8802Z" fill="#AA8A4B"/>
<path d="M34.1664 28.6383C33.7632 28.3782 33.3358 28.1204 32.8962 27.8719C32.4734 27.6328 31.9367 27.7817 31.6976 28.2046C31.4585 28.6276 31.6074 29.1641 32.0304 29.4033C32.4404 29.6351 32.8384 29.8752 33.2129 30.1167C33.6185 30.3783 34.1639 30.2651 34.4287 29.8542C34.6922 29.4459 34.5747 28.9016 34.1664 28.6383Z" fill="#AA8A4B"/>
<path d="M27.3451 25.0848C26.9206 24.8485 26.3851 25.0013 26.1489 25.426C25.9128 25.8504 26.0655 26.3861 26.4901 26.6222C26.9038 26.8522 27.3394 27.0836 27.7853 27.3094C28.2157 27.5277 28.7466 27.3585 28.9675 26.9226C29.1871 26.4894 29.0139 25.96 28.5806 25.7404C28.1549 25.5244 27.7392 25.3039 27.3451 25.0848Z" fill="#AA8A4B"/>
<path d="M22.4 23.8498C22.7688 24.1642 23.3242 24.1214 23.64 23.7508C23.9551 23.3811 23.9108 22.8259 23.541 22.5109C23.1852 22.2076 22.8539 21.898 22.5563 21.5908C22.2183 21.242 21.6615 21.233 21.3125 21.571C20.9636 21.909 20.9548 22.4659 21.2927 22.8147C21.6291 23.1621 22.0018 23.5104 22.4 23.8498Z" fill="#AA8A4B"/>
<path d="M19.46 15.8245C18.9757 15.8131 18.5699 16.1941 18.5567 16.6796C18.5549 16.7425 18.5541 16.8053 18.5542 16.8675C18.5542 17.3488 18.6049 17.8335 18.7052 18.3081C18.8057 18.785 19.2739 19.0873 19.7473 18.9871C20.2227 18.8868 20.5268 18.4203 20.4264 17.945C20.3514 17.5894 20.3134 17.227 20.3134 16.8666C20.3134 16.8202 20.314 16.774 20.3153 16.7278C20.3284 16.2422 19.9455 15.8378 19.46 15.8245Z" fill="#AA8A4B"/>
<path d="M20.5823 13.016C20.9758 13.3009 21.5257 13.2129 21.8106 12.8194C22.0609 12.4738 22.3449 12.1244 22.6544 11.7815C22.9799 11.4208 22.9515 10.8647 22.5909 10.5392C22.2301 10.2135 21.6739 10.2422 21.3487 10.6027C20.9969 10.9925 20.6728 11.3912 20.3857 11.7878C20.1008 12.1812 20.1888 12.731 20.5823 13.016Z" fill="#AA8A4B"/>
<path d="M29.9725 52.8902C29.6477 53.1588 29.4544 53.306 29.4526 53.3073C29.0657 53.601 28.99 54.1527 29.2837 54.5397C29.5783 54.9279 30.13 55.0015 30.5161 54.7087C30.525 54.7019 30.7372 54.5406 31.0936 54.2458C31.4679 53.9363 31.5204 53.3818 31.2108 53.0075C30.9015 52.6333 30.3469 52.5806 29.9725 52.8902Z" fill="#AA8A4B"/>
<path d="M33.4637 60H50.5851C52.0544 60 53.3908 59.1277 54.0729 57.7238C62.0387 41.3224 60.2092 26.5515 42.6414 21.1222C36.9859 19.3743 30.1842 16.5184 29.8975 12.8387C29.6683 9.89763 33.5728 6.4377 41.5028 2.55515C42.7529 1.94293 42.3252 0 40.9452 0C39.081 0 36.5182 0 34.5686 0C33.4654 0 32.3946 0.249932 31.3864 0.742692C28.9313 1.94273 25.6912 3.65503 22.5589 5.69941C13.2526 10.9206 8.48758 15.9781 8.39653 20.7317C8.3342 23.9857 10.4733 26.9648 14.7544 29.586C18.6327 31.9606 20.5996 34.624 20.6003 37.5023C20.6024 45.1785 6.84611 53.6109 2.32562 56.3819C0.696364 57.3807 1.38203 60.0001 3.25331 60.0001H29.3621C29.8477 60.0001 30.241 59.6066 30.241 59.1212C30.241 58.6359 29.8476 58.2424 29.3621 58.2424H9.93835C24.9068 48.4023 34.0875 36.0177 18.8103 26.6631C9.2865 20.8317 13.2483 14.1895 22.4956 7.85505C25.8538 5.55874 29.4813 3.63052 32.1583 2.32203C32.9242 1.94773 33.7351 1.75793 34.5686 1.75793H36.9014C32.2448 4.27046 25.4153 8.74322 25.6975 14.0264C25.8056 16.0528 26.9536 17.9709 29.1094 19.7276C31.3875 21.5841 34.8831 23.3251 39.4986 24.9025C47.5179 27.6429 51.9002 32.1846 52.5237 38.4014C52.5723 38.8843 53.0025 39.2367 53.486 39.1882C53.969 39.1398 54.3213 38.7091 54.2729 38.226C53.5745 31.264 48.795 26.2217 40.0671 23.239C31.9925 20.4795 27.6304 17.2615 27.4526 13.9326C27.3867 12.6977 27.8745 11.5367 28.5598 10.5087C25.9346 16.8975 35.5053 20.7565 42.1221 22.8013C48.802 24.8658 53.2563 28.3721 55.3616 33.223C58.9158 41.4125 55.0891 51.6075 52.4916 56.9557C52.1062 57.7492 51.3756 58.2422 50.585 58.2422H47.739C50.7788 53.6265 53.5282 47.9896 54.2018 42.5228C54.2613 42.041 53.9188 41.6024 53.437 41.543C52.9559 41.4846 52.5166 41.826 52.4573 42.3078C52.1178 45.0618 50.7733 50.7601 45.6178 58.2422H33.4637C32.9781 58.2422 32.5848 58.6357 32.5848 59.121C32.5847 59.6064 32.9782 60 33.4637 60ZM6.66242 58.2422H3.25341C3.24331 58.2422 3.23861 58.2411 3.23861 58.2411H3.23821C3.2192 58.2306 3.17057 58.1597 3.16787 58.0543C3.16487 57.9292 3.2245 57.8926 3.24411 57.8805C11.4502 52.8501 22.36 45.2646 22.3579 37.5018C22.357 33.9704 20.1075 30.8027 15.672 28.0868C10.0261 24.63 8.28917 20.6205 12.478 15.5303C9.98727 20.679 12.6578 24.8283 17.4983 27.916C17.8484 28.1392 17.9566 28.1977 18.3209 28.4299C32.6288 37.5497 21.0756 49.3802 6.66242 58.2422Z" fill="#AA8A4B"/>
</g>
<defs>
<clipPath id="clip0_2420_2111">
<rect width="60" height="60" fill="white"/>
</clipPath>
</defs>
</svg>
