<svg width="60" height="60" viewBox="0 0 60 60" fill="none" xmlns="http://www.w3.org/2000/svg">
<path d="M45.0253 35.3137C44.227 37.5507 42.9416 39.5823 41.262 41.2617C39.5825 42.9411 37.5508 44.2263 35.3137 45.0244C35.1306 45.0889 34.9719 45.2086 34.8597 45.3672C34.7475 45.5257 34.6874 45.7152 34.6875 45.9094V58.125H36.5625V46.5591C38.8186 45.6559 40.8679 44.3043 42.5863 42.586C44.3048 40.8677 45.6566 38.8185 46.56 36.5625H58.125V34.6875H45.9094C45.7153 34.6876 45.5261 34.7478 45.3677 34.86C45.2094 34.9722 45.0897 35.1307 45.0253 35.3137Z" fill="#AA8A4B"/>
<path d="M14.9747 24.6863C15.773 22.4493 17.0584 20.4177 18.738 18.7383C20.4175 17.0589 22.4492 15.7737 24.6863 14.9756C24.8694 14.9111 25.0281 14.7914 25.1403 14.6328C25.2525 14.4743 25.3126 14.2848 25.3125 14.0906V1.875H23.4375V13.4409C21.1814 14.3441 19.1321 15.6957 17.4137 17.414C15.6952 19.1323 14.3434 21.1815 13.44 23.4375H1.875V25.3125H14.0906C14.2847 25.3124 14.4739 25.2522 14.6323 25.14C14.7906 25.0278 14.9103 24.8693 14.9747 24.6863Z" fill="#AA8A4B"/>
<path d="M46.56 23.4375C45.6566 21.1815 44.3048 19.1323 42.5863 17.414C40.8679 15.6957 38.8186 14.3441 36.5625 13.4409V1.875H34.6875V14.0906C34.6874 14.2848 34.7475 14.4743 34.8597 14.6328C34.9719 14.7914 35.1306 14.9111 35.3137 14.9756C37.5508 15.7737 39.5825 17.0589 41.262 18.7383C42.9416 20.4177 44.227 22.4493 45.0253 24.6863C45.0897 24.8693 45.2094 25.0278 45.3677 25.14C45.5261 25.2522 45.7153 25.3124 45.9094 25.3125H58.125V23.4375H46.56Z" fill="#AA8A4B"/>
<path d="M24.6863 45.0244C22.4492 44.2263 20.4175 42.9411 18.738 41.2617C17.0584 39.5823 15.773 37.5507 14.9747 35.3137C14.9103 35.1307 14.7906 34.9722 14.6323 34.86C14.4739 34.7478 14.2847 34.6876 14.0906 34.6875H1.875V36.5625H13.44C14.3434 38.8185 15.6952 40.8677 17.4137 42.586C19.1321 44.3043 21.1814 45.6559 23.4375 46.5591V58.125H25.3125V45.9094C25.3126 45.7152 25.2525 45.5257 25.1403 45.3672C25.0281 45.2086 24.8694 45.0889 24.6863 45.0244Z" fill="#AA8A4B"/>
<path d="M18.0553 27.582C17.7377 29.1467 17.7316 30.7587 18.0375 32.3258L18.1191 32.5658L18.9628 32.157L19.8928 32.0408L19.8684 31.8748L19.8553 31.8486C19.6196 30.5615 19.6323 29.2412 19.8928 27.9589L18.0553 27.582Z" fill="#AA8A4B"/>
<path d="M23.2563 19.8486C21.925 20.7337 20.7813 21.8726 19.8906 23.2002L21.4459 24.2474C22.2001 23.1233 23.1682 22.1587 24.295 21.4086L23.2563 19.8486Z" fill="#AA8A4B"/>
<path d="M23.1925 40.1016L24.2406 38.5472C23.117 37.7926 22.1536 36.8234 21.4056 35.6953L19.8438 36.7341C20.7275 38.066 21.8655 39.2104 23.1925 40.1016Z" fill="#AA8A4B"/>
<path d="M36.7923 19.8867L35.7461 21.443C36.871 22.1959 37.8366 23.163 38.5877 24.2892L40.1477 23.2505C39.261 21.9198 38.1208 20.7768 36.7923 19.8867Z" fill="#AA8A4B"/>
<path d="M27.9453 40.1074L27.5703 41.944C28.3697 42.1067 29.1835 42.1884 29.9994 42.1877C30.7861 42.1869 31.571 42.1106 32.3431 41.9599L32.3834 41.9515L31.9681 40.1252C30.6391 40.3839 29.272 40.3778 27.9453 40.1074Z" fill="#AA8A4B"/>
<path d="M40.3109 30.0049C40.3109 30.6833 40.2434 31.3601 40.1094 32.0252L41.9478 32.4002C42.1064 31.6116 42.1862 30.8092 42.1859 30.0049C42.1852 29.2181 42.1089 28.4333 41.9581 27.6611L41.8175 27.6864L40.1206 28.0333C40.247 28.6829 40.3107 29.3431 40.3109 30.0049Z" fill="#AA8A4B"/>
<path d="M35.7188 38.5807L36.7603 40.1389C38.0923 39.2522 39.2357 38.111 40.125 36.7807L38.5631 35.7373C37.8115 36.8632 36.8449 37.8295 35.7188 38.5807Z" fill="#AA8A4B"/>
<path d="M32.0334 19.8895L32.4084 18.0511C30.8568 17.7326 29.2572 17.7265 27.7031 18.0333L27.6094 18.0511L28.0312 19.8745C29.3535 19.6177 30.7132 19.6228 32.0334 19.8895Z" fill="#AA8A4B"/>
<path d="M30 23.4375C28.7021 23.4375 27.4333 23.8224 26.3541 24.5435C25.2749 25.2646 24.4337 26.2895 23.937 27.4886C23.4403 28.6878 23.3104 30.0073 23.5636 31.2803C23.8168 32.5533 24.4418 33.7226 25.3596 34.6404C26.2774 35.5582 27.4467 36.1832 28.7197 36.4364C29.9927 36.6896 31.3122 36.5597 32.5114 36.063C33.7105 35.5663 34.7354 34.7251 35.4565 33.6459C36.1776 32.5667 36.5625 31.2979 36.5625 30C36.5605 28.2601 35.8685 26.5921 34.6382 25.3618C33.4079 24.1315 31.7399 23.4395 30 23.4375ZM30 34.6875C29.0729 34.6875 28.1666 34.4126 27.3958 33.8975C26.6249 33.3824 26.0241 32.6504 25.6693 31.7938C25.3145 30.9373 25.2217 29.9948 25.4026 29.0855C25.5834 28.1762 26.0299 27.341 26.6854 26.6854C27.341 26.0299 28.1762 25.5834 29.0855 25.4026C29.9948 25.2217 30.9373 25.3145 31.7938 25.6693C32.6504 26.0241 33.3824 26.6249 33.8975 27.3958C34.4126 28.1666 34.6875 29.0729 34.6875 30C34.686 31.2427 34.1917 32.4342 33.3129 33.3129C32.4342 34.1917 31.2427 34.686 30 34.6875Z" fill="#AA8A4B"/>
<path d="M29.0625 1.875H30.9375V5.625H29.0625V1.875Z" fill="#AA8A4B"/>
<path d="M29.0625 9.375H30.9375V13.125H29.0625V9.375Z" fill="#AA8A4B"/>
<path d="M29.0625 46.875H30.9375V50.625H29.0625V46.875Z" fill="#AA8A4B"/>
<path d="M29.0625 54.375H30.9375V58.125H29.0625V54.375Z" fill="#AA8A4B"/>
<path d="M1.875 29.0625H5.625V30.9375H1.875V29.0625Z" fill="#AA8A4B"/>
<path d="M9.375 29.0625H13.125V30.9375H9.375V29.0625Z" fill="#AA8A4B"/>
<path d="M46.875 29.0625H50.625V30.9375H46.875V29.0625Z" fill="#AA8A4B"/>
<path d="M54.375 29.0625H58.125V30.9375H54.375V29.0625Z" fill="#AA8A4B"/>
</svg>
