<svg width="60" height="60" viewBox="0 0 60 60" fill="none" xmlns="http://www.w3.org/2000/svg">
<path d="M35.8218 23.6055C35.3061 23.6055 35.0849 23.6608 34.7071 24.3238L33.7584 25.9819L32.8096 24.3238C32.4319 23.6607 32.211 23.6055 31.695 23.6055C31.3359 23.6055 30.9766 23.7988 30.9766 24.3238V29.8967C30.9767 30.1912 31.3359 30.3386 31.695 30.3386C32.0542 30.3386 32.4134 30.1912 32.4134 29.8966V26.3502L33.2884 27.953C33.3989 28.1649 33.5741 28.2201 33.7399 28.2201C33.9148 28.2201 34.099 28.1556 34.2188 27.953L35.1031 26.4423V29.8967C35.1031 30.1914 35.4623 30.3387 35.8216 30.3387C36.1809 30.3387 36.5399 30.1913 36.5399 29.8967V24.3238C36.5402 23.7988 36.1902 23.6055 35.8218 23.6055Z" fill="#AA8A4B"/>
<path d="M42.4053 29.6477L40.6829 24.0288C40.5815 23.7064 40.167 23.5498 39.7433 23.5498C39.3195 23.5498 38.9051 23.7064 38.8038 24.0288L37.0905 29.6477C36.984 30.0708 37.5896 30.3385 37.9931 30.3385C38.2233 30.3385 38.4076 30.2648 38.4629 30.0714L38.776 28.9199H40.7197L41.0328 30.0714C41.0881 30.2648 41.2723 30.3385 41.5026 30.3385C41.9056 30.3385 42.5121 30.0719 42.4053 29.6477ZM39.0707 27.8146L39.7431 25.3461L40.4156 27.8146H39.0707Z" fill="#AA8A4B"/>
<path d="M46.498 29.0851H44.3979V24.0374C44.3979 23.7334 44.0387 23.6045 43.6794 23.6045C43.3201 23.6045 42.9609 23.7334 42.9609 24.0374V29.8958C42.9609 30.1906 43.2742 30.338 43.5873 30.338H46.4981C46.7745 30.338 46.9126 30.0249 46.9126 29.7116C46.9125 29.3985 46.7743 29.0851 46.498 29.0851Z" fill="#AA8A4B"/>
<path d="M51.0293 29.0851H48.929V24.0374C48.929 23.7334 48.57 23.6045 48.2107 23.6045C47.8514 23.6045 47.4922 23.7334 47.4922 24.0374V29.8958C47.4922 30.1906 47.8053 30.338 48.1186 30.338H51.0294C51.3056 30.338 51.4439 30.0249 51.4439 29.7116C51.4439 29.3985 51.3055 29.0851 51.0293 29.0851Z" fill="#AA8A4B"/>
<path d="M57.6469 49.3195H57.2066V40.693C57.2066 40.2076 56.8132 39.8141 56.3277 39.8141C55.8422 39.8141 55.4488 40.2076 55.4488 40.693V49.3195H49.4785V36.1748C49.4785 35.4943 48.9248 34.9405 48.2443 34.9405C47.6156 34.9405 34.3905 34.9405 33.7482 34.9405C33.0744 34.9405 32.526 35.4887 32.526 36.1626V49.3194H26.5558V33.3812H55.4489V36.5912C55.4489 37.0766 55.8423 37.4701 56.3278 37.4701C56.8133 37.4701 57.2067 37.0766 57.2067 36.5912C57.2067 36.103 57.2067 22.1453 57.2067 21.8656C57.2067 20.9858 56.491 20.27 55.6112 20.27H49.4787V17.9374C49.9493 17.9205 50.3258 17.5347 50.3258 17.0601C50.3258 16.5855 49.9493 16.1997 49.4787 16.1828V14.3399C49.9493 14.3231 50.3258 13.9373 50.3258 13.4627C50.3258 12.9881 49.9493 12.6023 49.4787 12.5854V7.43019C49.4787 6.85714 49.2004 6.31574 48.7345 5.9821C48.2685 5.64835 47.6662 5.55929 47.1238 5.7441L5.5588 19.8846C4.44247 20.2642 3.69235 21.3118 3.69235 22.4908V49.3195H2.35336C1.05574 49.3195 0 50.3753 0 51.6729V51.9969C0 53.2945 1.05574 54.3503 2.35336 54.3503H27.949C28.4345 54.3503 28.8279 53.9568 28.8279 53.4714C28.8279 52.986 28.4345 52.5925 27.949 52.5925H2.35336C2.03063 52.5925 1.75793 52.3198 1.75793 51.997V51.673C1.75793 51.3503 2.03063 51.0776 2.35336 51.0776H57.6469C57.9696 51.0776 58.2422 51.3503 58.2422 51.673V51.997C58.2422 52.3198 57.9696 52.5925 57.6469 52.5925H32.051C31.5655 52.5925 31.1721 52.986 31.1721 53.4714C31.1721 53.9568 31.5655 54.3503 32.051 54.3503H57.6468C58.9444 54.3503 60 53.2945 60 51.9969V51.6729C60.0001 50.3753 58.9444 49.3195 57.6469 49.3195ZM20.3084 49.3195H9.964V46.6534H20.3084V49.3195ZM20.3084 44.8955H9.964V42.2293H20.3084V44.8955ZM20.3084 40.4714H9.964V37.8053H20.3084V40.4714ZM20.3084 36.0473H9.95873L9.95768 33.3812H20.3084V36.0473ZM24.7976 21.8412C24.7976 23.1557 24.7976 48.0669 24.7976 49.3195H22.0665C22.0665 48.5344 22.0665 33.8724 22.0665 33.3747C22.0665 32.4089 21.2808 31.6232 20.315 31.6232H9.95768C8.99181 31.6232 8.20619 32.4089 8.20619 33.3747C8.20619 33.9378 8.20619 48.7541 8.20619 49.3195H5.45028V22.4909C5.45028 22.0647 5.72134 21.6862 6.12493 21.5489L47.6899 7.40828C47.6967 7.40593 47.7011 7.40441 47.7109 7.41133C47.7206 7.41824 47.7206 7.42304 47.7206 7.43019V12.5835H41.0022C40.5167 12.5835 40.1233 12.977 40.1233 13.4624C40.1233 13.9478 40.5167 14.3413 41.0022 14.3413H47.7206V16.181H41.0022C40.5167 16.181 40.1233 16.5745 40.1233 17.0599C40.1233 17.5453 40.5167 17.9388 41.0022 17.9388H47.7206V20.2697H26.3689C25.5024 20.27 24.7976 20.9748 24.7976 21.8412ZM26.5556 22.0279H48.5994H55.4484V31.6234H26.5556V22.0279ZM40.1231 49.3195H34.2837V36.6985H40.1231V49.3195ZM47.7204 49.3195H41.881V36.6985H47.7204V49.3195Z" fill="#AA8A4B"/>
</svg>
