<svg width="61" height="61" viewBox="0 0 61 61" fill="none" xmlns="http://www.w3.org/2000/svg">
<g clip-path="url(#clip0_3165_1521)">
<path d="M56.1055 19.0911H52.1239C51.6385 19.0911 51.245 19.4846 51.245 19.97C51.245 20.4554 51.6385 20.8489 52.1239 20.8489H56.1055C57.5594 20.8489 58.7422 22.0317 58.7422 23.4856V58.6836C58.7422 58.7159 58.7159 58.7422 58.6836 58.7422H48.9008V55.2266H53.3905C54.3875 55.2266 55.2023 54.4154 55.2069 53.4184L55.2266 49.0906C55.2358 48.0975 54.4004 47.2611 53.4102 47.266H48.9008V43.8012H53.3905C54.3875 43.8012 55.2023 42.9902 55.2069 41.9932L55.2266 37.6653C55.2358 36.6721 54.4004 35.8359 53.4102 35.8407H48.9008V32.3251H53.3905C54.3875 32.3251 55.2023 31.5139 55.2069 30.5169L55.2266 26.189C55.2358 25.196 54.4004 24.3596 53.4102 24.3644H48.9008V15.2656C48.9008 12.8424 46.9295 10.8711 44.5062 10.8711H41.7158C41.266 5.07699 36.4075 0.5 30.5 0.5C24.5925 0.5 19.734 5.07699 19.2842 10.8711H16.4375C14.0143 10.8711 12.043 12.8424 12.043 15.2656V19.0911H4.89453C2.47133 19.0911 0.5 21.0624 0.5 23.4856V58.6836C0.5 59.6852 1.3148 60.5 2.31641 60.5H58.6836C59.6852 60.5 60.5 59.6852 60.5 58.6836V23.4856C60.5 21.0624 58.5287 19.0911 56.1055 19.0911ZM48.9008 26.1223H53.4102C53.4161 26.1223 53.4345 26.1223 53.4516 26.1396C53.4688 26.1568 53.4688 26.1751 53.4688 26.1811L53.4492 30.5088C53.4491 30.541 53.4227 30.5671 53.3906 30.5671H48.9008V26.1223ZM48.9008 37.5985H53.4102C53.4161 37.5985 53.4345 37.5985 53.4516 37.6157C53.4688 37.633 53.4688 37.6514 53.4688 37.6573L53.4492 41.9851C53.4491 42.0172 53.4227 42.0434 53.3906 42.0434H48.9008V37.5985ZM48.9008 49.0238H53.4102C53.4161 49.0238 53.4345 49.0238 53.4516 49.0411C53.4688 49.0583 53.4688 49.0767 53.4688 49.0827L53.4492 53.4104C53.4491 53.4425 53.4227 53.4688 53.3906 53.4688H48.9008V49.0238ZM12.043 53.4688H7.60977C7.57707 53.4688 7.55129 53.4433 7.55117 53.4107L7.53125 49.0831C7.53125 49.0769 7.53113 49.0583 7.54836 49.0411C7.56547 49.0238 7.58387 49.0238 7.58984 49.0238H12.043V53.4688ZM12.043 42.043H7.60977C7.57707 42.043 7.55129 42.0175 7.55117 41.985L7.53125 37.6573C7.53125 37.6512 7.53113 37.633 7.54859 37.6154C7.56582 37.598 7.58387 37.598 7.58984 37.598H12.043V42.043ZM12.043 30.5668H7.60977C7.57707 30.5668 7.55129 30.5414 7.55117 30.5088L7.53125 26.1812C7.53125 26.1751 7.53113 26.1568 7.54859 26.1392C7.56582 26.1219 7.58387 26.1219 7.58984 26.1219H12.043V30.5668ZM12.043 24.3641H7.58984C6.59598 24.3586 5.76465 25.1973 5.77344 26.1893L5.79336 30.5169C5.79793 31.5137 6.61273 32.3246 7.60977 32.3246H12.043V35.8402H7.58984C6.59598 35.8347 5.76465 36.6736 5.77344 37.6654L5.79336 41.9932C5.79793 42.99 6.61273 43.8009 7.60977 43.8009H12.043V47.2661H7.58984C6.59539 47.2606 5.76465 48.0987 5.77344 49.0913L5.79336 53.4191C5.79781 54.4156 6.61273 55.2266 7.60977 55.2266H12.043V58.7422H2.31641C2.28406 58.7422 2.25781 58.7159 2.25781 58.6836V23.4856C2.25781 22.0317 3.44059 20.8489 4.89453 20.8489H12.043V24.3641ZM30.5 2.25781C35.7341 2.25781 39.9922 6.51594 39.9922 11.75C39.9922 16.9841 35.7341 21.2422 30.5 21.2422C25.2659 21.2422 21.0078 16.9841 21.0078 11.75C21.0078 6.51594 25.2659 2.25781 30.5 2.25781ZM38.3544 58.7422H31.3789V43.2648H38.3544V58.7422ZM20.8878 41.507V39.7491H40.1123V41.507H20.8878ZM47.143 58.7422H40.1122V43.2648C41.0296 43.318 41.8759 42.647 41.87 41.6827V39.5734C41.87 38.701 41.1603 37.9913 40.288 37.9913H20.712C19.8397 37.9913 19.13 38.701 19.13 39.5734V41.6827C19.1238 42.6064 19.9549 43.3609 20.8878 43.2648V49.4885C20.8878 49.9739 21.2813 50.3674 21.7667 50.3674C22.2521 50.3674 22.6456 49.9739 22.6456 49.4885V43.2648H29.6211V58.7422H22.6456V53.59C22.6456 53.1046 22.2521 52.7111 21.7667 52.7111C21.2813 52.7111 20.8878 53.1046 20.8878 53.59V58.7422H13.8008V15.2656C13.8008 13.8117 14.9836 12.6289 16.4375 12.6289H19.2842C19.734 18.423 24.5925 23 30.5 23C36.4075 23 41.266 18.423 41.7158 12.6289H44.5062C45.9602 12.6289 47.143 13.8117 47.143 15.2656V58.7422ZM27.8633 14.3867V17.9023C27.8633 18.7747 28.573 19.4844 29.4453 19.4844H31.5547C32.427 19.4844 33.1367 18.7747 33.1367 17.9023V14.3867H36.6523C37.5247 14.3867 38.2344 13.677 38.2344 12.8047V10.6953C38.2344 9.82297 37.5247 9.11328 36.6523 9.11328H33.1367V5.59766C33.1367 4.72531 32.427 4.01562 31.5547 4.01562H29.4453C28.573 4.01562 27.8633 4.72531 27.8633 5.59766V9.11328H24.3477C23.4753 9.11328 22.7656 9.82297 22.7656 10.6953V12.8047C22.7656 13.677 23.4753 14.3867 24.3477 14.3867H27.8633ZM24.5234 10.8711H28.3906C29.0691 10.8711 29.6211 10.3191 29.6211 9.64062V5.77344H31.3789V9.64062C31.3789 10.3191 31.9309 10.8711 32.6094 10.8711H36.4766V12.6289H32.6094C31.9309 12.6289 31.3789 13.1809 31.3789 13.8594V17.7266H29.6211V13.8594C29.6211 13.1809 29.0691 12.6289 28.3906 12.6289H24.5234V10.8711ZM26.9844 52.7819C27.4698 52.7819 27.8633 52.3884 27.8633 51.903V50.1041C27.8633 49.6187 27.4698 49.2252 26.9844 49.2252C26.499 49.2252 26.1055 49.6187 26.1055 50.1041V51.903C26.1055 52.3884 26.499 52.7819 26.9844 52.7819ZM26.9258 26.5156H19.1567C18.1596 26.5156 17.3448 27.3268 17.3403 28.3238L17.3207 32.6514C17.3102 33.6396 18.1448 34.4818 19.1371 34.4762H26.9258C27.9274 34.4762 28.7422 33.6614 28.7422 32.6598V28.332C28.7422 27.3304 27.9274 26.5156 26.9258 26.5156ZM26.9844 32.6598C26.9844 32.6921 26.9581 32.7184 26.9258 32.7184H19.137C19.1137 32.7214 19.0753 32.6829 19.0784 32.6595L19.098 28.3317C19.0981 28.2996 19.1244 28.2734 19.1566 28.2734H26.9258C26.9581 28.2734 26.9844 28.2997 26.9844 28.332V32.6598ZM34.0156 52.7819C34.501 52.7819 34.8945 52.3884 34.8945 51.903V50.1041C34.8945 49.6187 34.501 49.2252 34.0156 49.2252C33.5302 49.2252 33.1367 49.6187 33.1367 50.1041V51.903C33.1367 52.3884 33.5302 52.7819 34.0156 52.7819ZM41.8348 26.5156H34.0742C33.0726 26.5156 32.2578 27.3304 32.2578 28.332V32.6598C32.2578 33.6614 33.0726 34.4762 34.0742 34.4762H41.8152C42.8122 34.4762 43.627 33.665 43.6316 32.668L43.6511 28.3401C43.6605 27.3472 42.825 26.5108 41.8348 26.5156ZM41.8737 32.66C41.8736 32.6921 41.8473 32.7184 41.8152 32.7184H34.0742C34.0419 32.7184 34.0156 32.6921 34.0156 32.6598V28.332C34.0156 28.2997 34.0419 28.2734 34.0742 28.2734H41.8348C41.8408 28.2734 41.8592 28.2734 41.8763 28.2907C41.8934 28.3079 41.8934 28.3262 41.8934 28.3321L41.8737 32.66Z" fill="#AA8A4B"/>
</g>
<defs>
<clipPath id="clip0_3165_1521">
<rect width="60" height="60" fill="white" transform="translate(0.5 0.5)"/>
</clipPath>
</defs>
</svg>
