<svg width="60" height="60" viewBox="0 0 60 60" fill="none" xmlns="http://www.w3.org/2000/svg">
<g clip-path="url(#clip0_2466_2778)">
<path d="M58.8683 2.36461C56.6214 2.84429 54.4583 3.28703 52.3517 3.71778C45.8031 5.05754 39.6177 6.323 33.2268 8.25048C20.806 11.997 2.03521 17.6589 0.13211 36.1129C-0.75664 44.73 3.00907 52.361 6.32456 57.245C6.3935 57.3473 6.48204 57.4349 6.58507 57.5027C6.68811 57.5706 6.80357 57.6173 6.92479 57.6402C7.046 57.663 7.17056 57.6617 7.29123 57.6361C7.4119 57.6105 7.5263 57.5612 7.62779 57.4911C7.83328 57.3482 7.97415 57.1301 8.01983 56.884C8.0655 56.6379 8.01229 56.3838 7.87175 56.1767C4.73364 51.5539 1.16732 44.3546 1.99698 36.3086C3.77076 19.109 21.1063 13.8801 33.7642 10.0621C40.0737 8.15907 46.2185 6.90193 52.7243 5.57093C54.8359 5.13928 57.0041 4.6956 59.2564 4.215C59.5002 4.16188 59.713 4.01459 59.8486 3.80521C59.9842 3.59584 60.0316 3.34136 59.9804 3.09722C59.9291 2.85308 59.7835 2.63909 59.5752 2.50186C59.3669 2.36463 59.1128 2.31529 58.8683 2.36461Z" fill="#AA8A4B"/>
<path d="M58.8962 11.3413C50.9647 12.7807 31.0269 17.4367 25.6586 19.7737C21.1177 21.7506 18.409 24.8613 18.0313 28.533C17.6115 32.6105 19.2064 36.9225 22.9064 41.7142L24.1787 43.3642C27.4933 47.6661 30.1114 51.0635 33.9881 55.4489C34.1061 55.5818 34.2595 55.6782 34.4303 55.7271C34.6011 55.776 34.7823 55.7753 34.9528 55.7251C35.1232 55.6748 35.2758 55.5771 35.3928 55.4434C35.5097 55.3096 35.5862 55.1453 35.6133 54.9697L37.7812 41.3462H35.8823L34.0772 52.6901C30.9296 49.0428 28.5628 45.9721 25.6593 42.204L24.3858 40.5526C20.9975 36.1644 19.5289 32.2965 19.8962 28.7278C20.3073 24.7325 24.1485 22.4906 26.4015 21.5096C26.6101 21.4188 26.8527 21.3222 27.1099 21.2232V24.6183C26.4694 24.7495 25.8939 25.0981 25.4809 25.6051C25.068 26.1121 24.8431 26.7462 24.8443 27.4001V29.2911C24.8432 29.5408 24.9414 29.7806 25.1172 29.958C25.293 30.1353 25.532 30.2355 25.7817 30.2366H35.1565C35.4062 30.2355 35.6452 30.1353 35.821 29.958C35.9968 29.7806 36.095 29.5408 36.094 29.2911V27.4001C36.0951 26.7462 35.8702 26.1121 35.4573 25.6051C35.0444 25.0981 34.4689 24.7495 33.8283 24.6183V19.1186C41.6773 16.9338 52.969 14.3385 59.228 13.2027C59.4732 13.157 59.6904 13.0162 59.8323 12.811C59.9741 12.6059 60.0292 12.3529 59.9854 12.1074C59.9416 11.8618 59.8026 11.6435 59.5986 11.5C59.3945 11.3565 59.1421 11.2994 58.8962 11.3413ZM28.9849 20.5634C29.8587 20.277 30.8593 19.971 31.9534 19.6522V24.5635H28.9849V20.5634ZM34.219 27.4001V28.3455H26.7192V27.4001C26.7184 27.1505 26.8167 26.9107 26.9924 26.7335C27.1682 26.5562 27.4071 26.4559 27.6567 26.4546H33.2815C33.5311 26.4559 33.77 26.5562 33.9458 26.7335C34.1215 26.9107 34.2198 27.1505 34.219 27.4001Z" fill="#AA8A4B"/>
<path d="M46.875 48.4316C46.6253 48.4327 46.3863 48.5329 46.2105 48.7103C46.0347 48.8876 45.9365 49.1275 45.9375 49.3772V51.3097C45.9366 51.4334 45.9601 51.5561 46.0068 51.6707C46.0535 51.7853 46.1224 51.8895 46.2095 51.9773C46.2967 52.0651 46.4003 52.1348 46.5146 52.1824C46.6288 52.23 46.7513 52.2545 46.875 52.2545C46.9987 52.2545 47.1212 52.23 47.2354 52.1824C47.3497 52.1348 47.4533 52.0651 47.5405 51.9773C47.6276 51.8895 47.6965 51.7853 47.7432 51.6707C47.7899 51.5561 47.8134 51.4334 47.8125 51.3097V49.3772C47.8135 49.1275 47.7154 48.8876 47.5395 48.7103C47.3637 48.5329 47.1247 48.4327 46.875 48.4316Z" fill="#AA8A4B"/>
<path d="M46.875 42.6343C46.6253 42.6354 46.3863 42.7356 46.2105 42.9129C46.0347 43.0902 45.9365 43.3301 45.9375 43.5797V45.5123C45.9366 45.636 45.9601 45.7587 46.0068 45.8733C46.0535 45.9879 46.1224 46.0921 46.2095 46.1799C46.2967 46.2677 46.4003 46.3374 46.5146 46.385C46.6288 46.4326 46.7513 46.4571 46.875 46.4571C46.9987 46.4571 47.1212 46.4326 47.2354 46.385C47.3497 46.3374 47.4533 46.2677 47.5405 46.1799C47.6276 46.0921 47.6965 45.9879 47.7432 45.8733C47.7899 45.7587 47.8134 45.636 47.8125 45.5123V43.5797C47.8135 43.3301 47.7153 43.0902 47.5395 42.9129C47.3637 42.7356 47.1247 42.6354 46.875 42.6343Z" fill="#AA8A4B"/>
<path d="M46.875 25.2432C46.6253 25.2443 46.3863 25.3445 46.2105 25.5218C46.0347 25.6991 45.9365 25.939 45.9375 26.1887V28.1208C45.9366 28.2445 45.9601 28.3672 46.0068 28.4818C46.0535 28.5964 46.1224 28.7006 46.2095 28.7884C46.2967 28.8762 46.4003 28.9459 46.5146 28.9935C46.6288 29.0411 46.7513 29.0656 46.875 29.0656C46.9987 29.0656 47.1212 29.0411 47.2354 28.9935C47.3497 28.9459 47.4533 28.8762 47.5405 28.7884C47.6276 28.7006 47.6965 28.5964 47.7432 28.4818C47.7899 28.3672 47.8134 28.2445 47.8125 28.1208V26.1887C47.8135 25.939 47.7153 25.6991 47.5395 25.5218C47.3637 25.3445 47.1247 25.2442 46.875 25.2432Z" fill="#AA8A4B"/>
<path d="M46.875 19.446C46.6253 19.4471 46.3863 19.5473 46.2105 19.7247C46.0347 19.902 45.9365 20.1419 45.9375 20.3916V22.3241C45.9366 22.4478 45.9601 22.5705 46.0068 22.6851C46.0535 22.7997 46.1224 22.9039 46.2095 22.9917C46.2967 23.0795 46.4003 23.1493 46.5146 23.1968C46.6288 23.2444 46.7513 23.2689 46.875 23.2689C46.9987 23.2689 47.1212 23.2444 47.2354 23.1968C47.3497 23.1493 47.4533 23.0795 47.5405 22.9917C47.6276 22.9039 47.6965 22.7997 47.7432 22.6851C47.7899 22.5705 47.8134 22.4478 47.8125 22.3241V20.3916C47.8135 20.1419 47.7154 19.902 47.5395 19.7247C47.3637 19.5473 47.1247 19.4471 46.875 19.446Z" fill="#AA8A4B"/>
<path d="M46.875 54.2288C46.6253 54.2298 46.3863 54.3301 46.2105 54.5074C46.0347 54.6847 45.9365 54.9245 45.9375 55.1742V56.1197C45.9366 56.2435 45.9601 56.3661 46.0068 56.4807C46.0535 56.5953 46.1224 56.6995 46.2095 56.7873C46.2967 56.8752 46.4003 56.9449 46.5146 56.9924C46.6288 57.04 46.7513 57.0645 46.875 57.0645C46.9987 57.0645 47.1212 57.04 47.2354 56.9924C47.3497 56.9449 47.4533 56.8752 47.5405 56.7873C47.6276 56.6995 47.6965 56.5953 47.7432 56.4807C47.7899 56.3661 47.8134 56.2435 47.8125 56.1197V55.1742C47.8135 54.9245 47.7153 54.6847 47.5395 54.5074C47.3637 54.33 47.1247 54.2298 46.875 54.2288Z" fill="#AA8A4B"/>
<path d="M36.2546 14.218C36.3355 14.2178 36.4161 14.2071 36.4942 14.1861L38.3108 13.7046C38.5522 13.6395 38.7581 13.4816 38.8835 13.2652C39.0088 13.0489 39.0435 12.7917 38.9798 12.5499C38.9493 12.4303 38.8954 12.3179 38.8212 12.2192C38.7471 12.1204 38.6542 12.0374 38.5478 11.9747C38.4414 11.912 38.3237 11.871 38.2014 11.8539C38.0791 11.8369 37.9547 11.8442 37.8352 11.8754L36.0163 12.3579C35.7957 12.4177 35.6041 12.5553 35.4771 12.7454C35.35 12.9354 35.296 13.165 35.3251 13.3917C35.3541 13.6185 35.4642 13.8271 35.6351 13.9789C35.806 14.1308 36.026 14.2157 36.2546 14.218Z" fill="#AA8A4B"/>
<path d="M30.7478 15.5005C30.8301 15.5005 30.9121 15.4894 30.9915 15.4677C31.5877 15.3061 32.1892 15.157 32.779 15.0241C33.0221 14.9682 33.2332 14.8184 33.3664 14.6076C33.4996 14.3967 33.544 14.1417 33.49 13.8982C33.4361 13.6547 33.288 13.4424 33.0782 13.3075C32.8684 13.1727 32.6138 13.1262 32.3698 13.1783C31.7541 13.3173 31.127 13.4733 30.5054 13.6413C30.2854 13.7021 30.0947 13.8402 29.9685 14.0304C29.8422 14.2206 29.789 14.45 29.8185 14.6763C29.848 14.9026 29.9583 15.1107 30.129 15.2621C30.2998 15.4136 30.5196 15.4982 30.7478 15.5005Z" fill="#AA8A4B"/>
<path d="M16.6713 23.1315C17.0771 22.7119 17.5174 22.2959 17.9797 21.8956C18.1687 21.7314 18.2852 21.4994 18.3042 21.2498C18.3231 21.0002 18.2429 20.7532 18.0809 20.5623C18.0013 20.4681 17.9037 20.3906 17.7939 20.3344C17.6841 20.2782 17.5642 20.2444 17.4412 20.2349C17.3181 20.2255 17.1945 20.2406 17.0774 20.2793C16.9602 20.3181 16.852 20.3798 16.7589 20.4608C16.2543 20.897 15.7731 21.3518 15.3287 21.8121C15.155 21.9923 15.0594 22.2338 15.0626 22.4841C15.0657 22.7343 15.1674 22.9733 15.3456 23.1491C15.4334 23.2357 15.5376 23.3039 15.652 23.35C15.7664 23.396 15.8888 23.4189 16.0121 23.4172C16.1354 23.4156 16.2572 23.3895 16.3703 23.3405C16.4835 23.2914 16.5858 23.2204 16.6713 23.1315Z" fill="#AA8A4B"/>
<path d="M25.4101 17.3175C25.533 17.3173 25.6547 17.2927 25.768 17.2451C26.3208 17.0147 26.8969 16.7898 27.4803 16.5775C27.7149 16.491 27.9059 16.3153 28.0115 16.0886C28.1171 15.8619 28.1288 15.6027 28.044 15.3674C28.0029 15.251 27.9392 15.1439 27.8565 15.0523C27.7739 14.9606 27.6739 14.8862 27.5623 14.8334C27.4508 14.7806 27.3299 14.7504 27.2066 14.7445C27.0833 14.7386 26.9601 14.7572 26.844 14.7991C26.2336 15.0212 25.6303 15.2561 25.0512 15.4981C24.8207 15.5953 24.638 15.7797 24.5429 16.011C24.4478 16.2423 24.4479 16.5018 24.5433 16.7331C24.6135 16.9055 24.7334 17.0531 24.8877 17.1572C25.0421 17.2613 25.2239 17.3171 25.4101 17.3175Z" fill="#AA8A4B"/>
<path d="M20.3976 19.8939C20.5733 19.8938 20.7455 19.8438 20.894 19.7498C21.3971 19.4322 21.9257 19.1215 22.4655 18.826C22.6844 18.705 22.8468 18.5025 22.9174 18.2624C22.9879 18.0224 22.9609 17.7642 22.8422 17.544C22.7841 17.4351 22.705 17.3389 22.6096 17.2607C22.5141 17.1826 22.404 17.1242 22.2858 17.0889C22.1676 17.0536 22.0436 17.042 21.9209 17.0549C21.7982 17.0678 21.6793 17.1049 21.571 17.164C20.9974 17.4779 20.4351 17.809 19.8993 18.1469C19.6881 18.2812 19.5384 18.4934 19.4828 18.7375C19.4271 18.9815 19.47 19.2376 19.602 19.4502C19.6857 19.5859 19.8028 19.6979 19.9421 19.7756C20.0813 19.8532 20.2381 19.8939 20.3976 19.8939Z" fill="#AA8A4B"/>
<path d="M58.8605 6.62106L57.9109 6.83387C57.6854 6.88624 57.4869 7.01945 57.353 7.2083C57.2192 7.39714 57.1591 7.62851 57.1843 7.85863C57.2095 8.08874 57.3182 8.30164 57.4898 8.45702C57.6614 8.6124 57.884 8.69948 58.1155 8.7018C58.185 8.70183 58.2542 8.69409 58.322 8.67871L59.2633 8.46771C59.5071 8.41246 59.719 8.26295 59.8529 8.05185C59.9867 7.84076 60.0315 7.58526 59.9774 7.34124C59.9518 7.22036 59.9026 7.10574 59.8325 7.00399C59.7624 6.90225 59.6728 6.81539 59.569 6.74843C59.4652 6.68148 59.3491 6.63575 59.2275 6.61389C59.1059 6.59202 58.9812 6.59446 58.8605 6.62106Z" fill="#AA8A4B"/>
<path d="M52.6325 10.0047C52.7074 10.0049 52.782 9.9959 52.8548 9.97797C53.4709 9.82703 54.0797 9.67836 54.6764 9.53476C54.9186 9.47542 55.1276 9.32272 55.2578 9.10994C55.3879 8.89717 55.4287 8.64157 55.3712 8.39887C55.3137 8.15616 55.1626 7.94603 54.9508 7.81427C54.739 7.68251 54.4837 7.63981 54.2406 7.69547C53.6416 7.83998 53.0305 7.98864 52.4116 8.14053C52.1884 8.19646 51.9932 8.33181 51.8626 8.52127C51.7319 8.71072 51.6748 8.94128 51.7019 9.16981C51.729 9.39834 51.8384 9.60918 52.0097 9.76286C52.181 9.91654 52.4024 10.0025 52.6325 10.0047Z" fill="#AA8A4B"/>
<path d="M47.1657 11.3736C47.2434 11.3736 47.3209 11.3639 47.3962 11.345C47.9982 11.1912 48.6056 11.0375 49.2144 10.8842C49.4565 10.8223 49.6643 10.6669 49.7922 10.4522C49.9202 10.2374 49.9579 9.98079 49.8971 9.73833C49.8683 9.61817 49.816 9.50491 49.7431 9.4051C49.6702 9.3053 49.5783 9.22093 49.4726 9.15687C49.367 9.09282 49.2496 9.05035 49.1274 9.03193C49.0052 9.01351 48.8806 9.01949 48.7607 9.04954C48.1501 9.20281 47.5421 9.35669 46.9366 9.5112C46.7146 9.56897 46.5211 9.70542 46.3922 9.89516C46.2632 10.0849 46.2076 10.315 46.2356 10.5427C46.2636 10.7704 46.3734 10.9802 46.5445 11.133C46.7156 11.2858 46.9363 11.3713 47.1657 11.3736Z" fill="#AA8A4B"/>
<path d="M41.7077 12.7813C41.7872 12.7812 41.8664 12.7712 41.9434 12.7513L43.7602 12.279C44.0013 12.2154 44.2075 12.0591 44.3339 11.8442C44.4604 11.6293 44.4967 11.3731 44.4352 11.1315C44.3736 10.8899 44.219 10.6824 44.0052 10.5542C43.7913 10.426 43.5354 10.3875 43.2933 10.4471L41.4733 10.9203C41.2521 10.9792 41.0597 11.1164 40.9319 11.3063C40.804 11.4962 40.7493 11.726 40.7779 11.9531C40.8065 12.1802 40.9165 12.3893 41.0874 12.5416C41.2584 12.6939 41.4787 12.779 41.7077 12.7813Z" fill="#AA8A4B"/>
<path d="M18.6063 51.3185C18.5387 51.2152 18.4513 51.1265 18.3491 51.0573C18.2469 50.9882 18.132 50.94 18.0111 50.9156C17.8901 50.8912 17.7656 50.8911 17.6446 50.9152C17.5236 50.9394 17.4086 50.9873 17.3063 51.0562C17.099 51.1965 16.9555 51.4129 16.9068 51.6584C16.8582 51.9039 16.9083 52.1586 17.0463 52.3674C17.3898 52.8872 17.7485 53.4139 18.1222 53.9472C18.1927 54.0485 18.2825 54.1348 18.3866 54.2011C18.4906 54.2674 18.6068 54.3123 18.7284 54.3334C18.8499 54.3544 18.9745 54.3511 19.0948 54.3237C19.2151 54.2962 19.3287 54.2452 19.4291 54.1734C19.6323 54.0275 19.7699 53.8074 19.8119 53.5607C19.8539 53.314 19.7969 53.0608 19.6534 52.8558C19.2895 52.3365 18.9404 51.824 18.6063 51.3185Z" fill="#AA8A4B"/>
<path d="M14.2074 43.1971C13.9702 42.6195 13.7517 42.042 13.5573 41.481C13.5175 41.3642 13.4549 41.2564 13.3732 41.1638C13.2915 41.0713 13.1923 40.9958 13.0813 40.9418C12.9703 40.8878 12.8498 40.8562 12.7265 40.849C12.6033 40.8418 12.4798 40.8591 12.3633 40.8998C12.1278 40.9839 11.935 41.1577 11.8271 41.3834C11.7192 41.609 11.7049 41.8681 11.7872 42.1043C11.9932 42.6989 12.2244 43.3097 12.4748 43.92C12.5449 44.0925 12.6648 44.2401 12.8192 44.3442C12.9735 44.4483 13.1553 44.5041 13.3415 44.5045C13.4645 44.5043 13.5861 44.4797 13.6995 44.432C13.9299 44.3348 14.1126 44.1505 14.2078 43.9191C14.3029 43.6878 14.3027 43.4283 14.2074 43.1971Z" fill="#AA8A4B"/>
<path d="M15.7689 46.5368C15.7121 46.4273 15.6341 46.3302 15.5395 46.251C15.4449 46.1718 15.3355 46.1122 15.2177 46.0755C15.1 46.0388 14.9761 46.0258 14.8532 46.0372C14.7304 46.0487 14.6111 46.0843 14.5021 46.1421C14.2817 46.2606 14.117 46.4612 14.0437 46.7003C13.9703 46.9395 13.9944 47.198 14.1105 47.4196C14.4011 47.9749 14.7117 48.5419 15.0338 49.1051C15.0945 49.2125 15.176 49.3068 15.2735 49.3824C15.3709 49.4581 15.4824 49.5137 15.6015 49.5459C15.7206 49.5782 15.8449 49.5865 15.9672 49.5703C16.0896 49.5542 16.2075 49.5139 16.3141 49.4518C16.53 49.3253 16.6871 49.1187 16.7515 48.8769C16.8159 48.6351 16.7822 48.3777 16.6579 48.1605C16.3475 47.6176 16.0484 47.0714 15.7689 46.5368Z" fill="#AA8A4B"/>
<path d="M10.668 30.46C10.536 31.1113 10.4411 31.7697 10.3838 32.4318C10.3611 32.6805 10.4381 32.9281 10.5978 33.1202C10.7575 33.3122 10.9869 33.4331 11.2356 33.4562C11.2636 33.459 11.2912 33.4599 11.3187 33.4599C11.5539 33.4588 11.7801 33.3695 11.9528 33.2098C12.1254 33.0501 12.232 32.8315 12.2514 32.5971C12.3025 32.0072 12.387 31.4207 12.5045 30.8404C12.5552 30.5956 12.5068 30.3408 12.37 30.1316C12.2332 29.9223 12.0192 29.7758 11.7746 29.7241C11.6536 29.6991 11.5288 29.6984 11.4076 29.722C11.2863 29.7456 11.1708 29.7929 11.0679 29.8614C10.9651 29.9298 10.8767 30.0179 10.8081 30.1207C10.7395 30.2234 10.6919 30.3387 10.668 30.46Z" fill="#AA8A4B"/>
<path d="M12.5919 37.9659C12.4717 37.3629 12.3774 36.7614 12.3115 36.1778C12.2984 36.0547 12.2611 35.9354 12.2016 35.8268C12.1422 35.7182 12.0618 35.6224 11.9652 35.5451C11.8685 35.4677 11.7575 35.4102 11.6385 35.376C11.5196 35.3417 11.395 35.3314 11.272 35.3455C11.149 35.3596 11.03 35.398 10.9219 35.4584C10.8138 35.5187 10.7188 35.5999 10.6422 35.6972C10.5656 35.7945 10.5091 35.906 10.4759 36.0252C10.4426 36.1445 10.4333 36.2692 10.4485 36.392C10.5206 37.0287 10.6231 37.6833 10.7536 38.338C10.7771 38.4595 10.8245 38.5752 10.893 38.6783C10.9615 38.7814 11.0498 38.87 11.1527 38.9389C11.2555 39.0077 11.3711 39.0555 11.4925 39.0795C11.614 39.1035 11.739 39.1032 11.8603 39.0787C11.9817 39.0541 12.097 39.0058 12.1995 38.9364C12.3021 38.8671 12.3899 38.7781 12.4579 38.6747C12.5259 38.5712 12.5728 38.4553 12.5958 38.3336C12.6188 38.212 12.6175 38.087 12.5919 37.9659Z" fill="#AA8A4B"/>
<path d="M12.7702 28.0261C12.948 28.026 13.122 27.9752 13.272 27.8798C13.422 27.7844 13.5418 27.6483 13.6173 27.4874C13.8702 26.9528 14.154 26.4335 14.4673 25.932C14.5998 25.7197 14.6432 25.4638 14.5882 25.2197C14.5331 24.9756 14.384 24.763 14.1732 24.6282C14.0691 24.562 13.9529 24.5171 13.8312 24.4962C13.7096 24.4752 13.5851 24.4787 13.4648 24.5062C13.3445 24.5338 13.2309 24.585 13.1306 24.6568C13.0303 24.7286 12.9452 24.8197 12.8803 24.9246C12.5282 25.4888 12.2091 26.0728 11.9245 26.6739C11.8173 26.9 11.8037 27.1593 11.8868 27.3953C11.9698 27.6314 12.1427 27.8251 12.3678 27.9343C12.4934 27.9947 12.6309 28.0261 12.7702 28.0261Z" fill="#AA8A4B"/>
<path d="M54.2703 16.0752C53.6738 16.2005 53.0593 16.3318 52.4326 16.4676L58.1355 54.9597C58.1677 55.1827 58.2789 55.3867 58.4488 55.5345C58.6188 55.6824 58.8362 55.7643 59.0615 55.7653C59.1082 55.7653 59.1549 55.7619 59.2011 55.7552C59.448 55.7167 59.6697 55.5819 59.8175 55.3804C59.9653 55.1789 60.0273 54.927 59.9898 54.6799L54.2703 16.0752Z" fill="#AA8A4B"/>
<path d="M39.3521 19.5462L37.5381 30.9458H39.437L41.3301 19.0488C40.6636 19.2142 40.0043 19.38 39.3521 19.5462Z" fill="#AA8A4B"/>
<path d="M46.8755 32.8367H30.001C29.7513 32.8378 29.5122 32.938 29.3364 33.1153C29.1606 33.2926 29.0624 33.5325 29.0635 33.7822V38.5097C29.0624 38.7594 29.1606 38.9993 29.3364 39.1766C29.5122 39.3539 29.7513 39.4541 30.001 39.4552H31.8759V43.2372C31.8749 43.361 31.8985 43.4836 31.9452 43.5982C31.9918 43.7128 32.0608 43.817 32.1479 43.9048C32.235 43.9927 32.3387 44.0624 32.4529 44.1099C32.5671 44.1575 32.6896 44.182 32.8134 44.182C32.9371 44.182 33.0596 44.1575 33.1738 44.1099C33.288 44.0624 33.3917 43.9927 33.4788 43.9048C33.566 43.817 33.6349 43.7128 33.6816 43.5982C33.7283 43.4836 33.7518 43.361 33.7508 43.2372V39.4552H46.8755C47.1252 39.4541 47.3642 39.3539 47.54 39.1766C47.7159 38.9993 47.814 38.7594 47.813 38.5097V33.7822C47.814 33.5325 47.7158 33.2926 47.54 33.1153C47.3642 32.938 47.1252 32.8377 46.8755 32.8367ZM45.938 37.5642H30.9384V34.7277H45.938V37.5642Z" fill="#AA8A4B"/>
</g>
<defs>
<clipPath id="clip0_2466_2778">
<rect width="60" height="60" fill="white"/>
</clipPath>
</defs>
</svg>
